<svg width="414" height="542" viewBox="0 0 414 542" fill="none" xmlns="http://www.w3.org/2000/svg">
<rect width="414" height="542" fill="white"/>
<path d="M138.724 72H137.536V62.98L137.096 63.244C136.92 63.354 136.722 63.464 136.502 63.574C136.282 63.684 136.062 63.772 135.82 63.86C135.578 63.948 135.336 64.014 135.116 64.058V62.98C135.644 62.782 136.128 62.496 136.546 62.144C136.942 61.792 137.272 61.484 137.536 61.22H138.724V72ZM141.138 70.768H142.37V72H141.138V70.768ZM153.442 62.298V66.874H154.784C155.664 66.874 156.324 66.676 156.786 66.236C157.248 65.796 157.49 65.224 157.49 64.52C157.49 63.816 157.292 63.266 156.94 62.87C156.588 62.496 155.972 62.298 155.092 62.298H153.442ZM153.442 67.952V72H152.188V61.22H155.092C156.236 61.22 157.138 61.506 157.776 62.056C158.392 62.606 158.722 63.42 158.722 64.52C158.722 65.576 158.37 66.412 157.688 67.028C156.984 67.644 156.016 67.952 154.784 67.952H153.442ZM159.943 60.45H161.175V72H159.943V60.45ZM168.83 67.446C168.786 66.698 168.61 66.148 168.258 65.774C167.906 65.422 167.422 65.224 166.806 65.224C166.19 65.224 165.662 65.422 165.266 65.796C164.848 66.192 164.584 66.742 164.496 67.446H168.83ZM170.084 68.524H164.496C164.496 69.448 164.716 70.108 165.2 70.504C165.684 70.9 166.3 71.076 167.048 71.076C167.708 71.076 168.214 71.01 168.588 70.834C168.962 70.658 169.27 70.482 169.512 70.306V71.384C169.27 71.56 168.962 71.736 168.588 71.912C168.214 72.088 167.708 72.154 167.048 72.154C166.476 72.154 165.97 72.088 165.508 71.934C165.046 71.78 164.65 71.538 164.32 71.208C163.968 70.9 163.704 70.482 163.528 69.976C163.33 69.492 163.242 68.876 163.242 68.172C163.242 67.6 163.33 67.05 163.506 66.544C163.682 66.06 163.924 65.62 164.254 65.268C164.562 64.916 164.936 64.652 165.376 64.454C165.816 64.256 166.278 64.146 166.806 64.146C167.818 64.146 168.632 64.454 169.204 65.07C169.776 65.686 170.084 66.61 170.084 67.842V68.524ZM171.799 65.334C172.041 65.048 172.393 64.784 172.833 64.52C173.273 64.278 173.845 64.146 174.505 64.146C174.879 64.146 175.275 64.212 175.671 64.3C176.067 64.41 176.441 64.586 176.771 64.806C177.079 65.026 177.343 65.312 177.563 65.664C177.761 66.016 177.871 66.456 177.871 66.94V72H176.639V71.296C176.419 71.56 176.155 71.758 175.803 71.912C175.451 72.088 175.033 72.154 174.505 72.154C174.153 72.154 173.801 72.132 173.471 72.044C173.141 71.956 172.855 71.846 172.591 71.67C172.327 71.494 172.129 71.274 171.975 71.01C171.821 70.746 171.755 70.438 171.755 70.042C171.799 69.536 171.953 69.14 172.217 68.832C172.481 68.546 172.789 68.326 173.141 68.172C173.493 68.04 173.889 67.93 174.307 67.886C174.703 67.842 175.077 67.776 175.429 67.71C175.781 67.666 176.067 67.578 176.287 67.468C176.507 67.38 176.639 67.204 176.639 66.94C176.639 66.39 176.441 65.972 176.067 65.664C175.671 65.378 175.165 65.224 174.505 65.224C173.911 65.224 173.427 65.378 173.031 65.642C172.635 65.906 172.305 66.214 172.085 66.544L171.799 65.334ZM174.637 71.076C175.121 71.076 175.539 70.988 175.869 70.79C176.199 70.614 176.463 70.394 176.639 70.13V68.37C176.485 68.48 176.265 68.59 175.979 68.678C175.693 68.766 175.319 68.81 174.879 68.81C174.703 68.81 174.505 68.832 174.285 68.876C174.065 68.92 173.845 69.008 173.669 69.096C173.471 69.184 173.317 69.316 173.185 69.47C173.053 69.646 172.987 69.822 172.987 70.042C172.987 70.306 173.031 70.504 173.163 70.636C173.273 70.768 173.405 70.878 173.581 70.944C173.757 71.01 173.933 71.054 174.131 71.054C174.307 71.076 174.483 71.076 174.637 71.076ZM184.386 65.796C184.21 65.686 183.968 65.554 183.66 65.422C183.352 65.29 182.89 65.224 182.318 65.224C181.944 65.224 181.636 65.29 181.394 65.378C181.152 65.488 181.042 65.708 181.042 66.016C181.042 66.324 181.13 66.566 181.328 66.72C181.504 66.874 181.746 67.006 182.032 67.094C182.296 67.204 182.604 67.314 182.934 67.402C183.264 67.49 183.572 67.622 183.858 67.798C184.122 67.974 184.364 68.238 184.562 68.546C184.738 68.854 184.848 69.294 184.848 69.822C184.848 70.13 184.804 70.438 184.738 70.702C184.65 70.988 184.518 71.23 184.32 71.45C184.1 71.67 183.814 71.824 183.462 71.956C183.11 72.088 182.648 72.154 182.098 72.154C181.35 72.154 180.822 72.11 180.492 72C180.162 71.912 179.942 71.802 179.81 71.67V70.262C179.942 70.46 180.206 70.636 180.558 70.812C180.91 70.988 181.438 71.076 182.098 71.076C182.714 71.076 183.132 70.988 183.396 70.812C183.638 70.636 183.77 70.306 183.77 69.822C183.77 69.448 183.66 69.162 183.462 68.942C183.264 68.744 183.022 68.59 182.736 68.458C182.428 68.326 182.12 68.216 181.79 68.128C181.438 68.04 181.13 67.908 180.844 67.754C180.536 67.6 180.294 67.38 180.096 67.116C179.898 66.852 179.81 66.5 179.81 66.016C179.81 65.708 179.876 65.444 180.03 65.202C180.162 64.982 180.36 64.784 180.602 64.63C180.822 64.476 181.086 64.366 181.394 64.278C181.702 64.19 182.01 64.146 182.318 64.146C182.934 64.146 183.396 64.19 183.704 64.256C184.012 64.322 184.232 64.388 184.386 64.454V65.796ZM191.947 67.446C191.903 66.698 191.727 66.148 191.375 65.774C191.023 65.422 190.539 65.224 189.923 65.224C189.307 65.224 188.779 65.422 188.383 65.796C187.965 66.192 187.701 66.742 187.613 67.446H191.947ZM193.201 68.524H187.613C187.613 69.448 187.833 70.108 188.317 70.504C188.801 70.9 189.417 71.076 190.165 71.076C190.825 71.076 191.331 71.01 191.705 70.834C192.079 70.658 192.387 70.482 192.629 70.306V71.384C192.387 71.56 192.079 71.736 191.705 71.912C191.331 72.088 190.825 72.154 190.165 72.154C189.593 72.154 189.087 72.088 188.625 71.934C188.163 71.78 187.767 71.538 187.437 71.208C187.085 70.9 186.821 70.482 186.645 69.976C186.447 69.492 186.359 68.876 186.359 68.172C186.359 67.6 186.447 67.05 186.623 66.544C186.799 66.06 187.041 65.62 187.371 65.268C187.679 64.916 188.053 64.652 188.493 64.454C188.933 64.256 189.395 64.146 189.923 64.146C190.935 64.146 191.749 64.454 192.321 65.07C192.893 65.686 193.201 66.61 193.201 67.842V68.524ZM203.436 68.194C203.436 68.59 203.502 68.964 203.656 69.316C203.788 69.668 203.986 69.976 204.25 70.24C204.492 70.504 204.778 70.724 205.108 70.856C205.416 71.01 205.768 71.076 206.12 71.076C206.824 71.076 207.308 70.856 207.616 70.394C207.924 69.954 208.078 69.272 208.078 68.392C208.078 67.292 207.858 66.5 207.44 65.994C207.022 65.488 206.45 65.224 205.702 65.224C205.35 65.224 205.042 65.312 204.778 65.466C204.514 65.62 204.272 65.818 204.074 66.06C203.854 66.324 203.7 66.61 203.59 66.918C203.48 67.226 203.436 67.556 203.436 67.864V68.194ZM203.436 65.356C203.678 64.938 203.986 64.63 204.36 64.432C204.712 64.256 205.174 64.146 205.702 64.146C206.252 64.146 206.758 64.256 207.198 64.454C207.638 64.674 208.034 64.96 208.342 65.312C208.65 65.686 208.87 66.126 209.046 66.654C209.222 67.182 209.31 67.776 209.31 68.392C209.31 69.646 209.024 70.592 208.474 71.208C207.902 71.846 207.132 72.154 206.12 72.154C205.526 72.154 205.02 72.066 204.58 71.846C204.14 71.648 203.744 71.274 203.436 70.746V75.85H202.182V64.3H203.436V65.356ZM214.608 65.576C214.52 65.51 214.41 65.444 214.3 65.356C214.168 65.268 214.036 65.224 213.86 65.224C213.596 65.224 213.332 65.356 213.09 65.598C212.826 65.862 212.606 66.17 212.43 66.544C212.232 66.918 212.078 67.336 211.968 67.798C211.858 68.26 211.814 68.7 211.814 69.096V72H210.582V64.3H211.814V66.17C211.99 65.62 212.254 65.136 212.628 64.74C212.98 64.344 213.398 64.146 213.86 64.146C214.08 64.146 214.278 64.168 214.454 64.212L214.608 64.3V65.576ZM220.994 67.446C220.95 66.698 220.774 66.148 220.422 65.774C220.07 65.422 219.586 65.224 218.97 65.224C218.354 65.224 217.826 65.422 217.43 65.796C217.012 66.192 216.748 66.742 216.66 67.446H220.994ZM222.248 68.524H216.66C216.66 69.448 216.88 70.108 217.364 70.504C217.848 70.9 218.464 71.076 219.212 71.076C219.872 71.076 220.378 71.01 220.752 70.834C221.126 70.658 221.434 70.482 221.676 70.306V71.384C221.434 71.56 221.126 71.736 220.752 71.912C220.378 72.088 219.872 72.154 219.212 72.154C218.64 72.154 218.134 72.088 217.672 71.934C217.21 71.78 216.814 71.538 216.484 71.208C216.132 70.9 215.868 70.482 215.692 69.976C215.494 69.492 215.406 68.876 215.406 68.172C215.406 67.6 215.494 67.05 215.67 66.544C215.846 66.06 216.088 65.62 216.418 65.268C216.726 64.916 217.1 64.652 217.54 64.454C217.98 64.256 218.442 64.146 218.97 64.146C219.982 64.146 220.796 64.454 221.368 65.07C221.94 65.686 222.248 66.61 222.248 67.842V68.524ZM225.393 68.194C225.393 68.59 225.459 68.964 225.613 69.316C225.745 69.668 225.943 69.976 226.207 70.24C226.449 70.504 226.735 70.724 227.065 70.856C227.373 71.01 227.725 71.076 228.077 71.076C228.781 71.076 229.265 70.856 229.573 70.394C229.881 69.954 230.035 69.272 230.035 68.392C230.035 67.292 229.815 66.5 229.397 65.994C228.979 65.488 228.407 65.224 227.659 65.224C227.307 65.224 226.999 65.312 226.735 65.466C226.471 65.62 226.229 65.818 226.031 66.06C225.811 66.324 225.657 66.61 225.547 66.918C225.437 67.226 225.393 67.556 225.393 67.864V68.194ZM225.393 65.356C225.635 64.938 225.943 64.63 226.317 64.432C226.669 64.256 227.131 64.146 227.659 64.146C228.209 64.146 228.715 64.256 229.155 64.454C229.595 64.674 229.991 64.96 230.299 65.312C230.607 65.686 230.827 66.126 231.003 66.654C231.179 67.182 231.267 67.776 231.267 68.392C231.267 69.646 230.981 70.592 230.431 71.208C229.859 71.846 229.089 72.154 228.077 72.154C227.483 72.154 226.977 72.066 226.537 71.846C226.097 71.648 225.701 71.274 225.393 70.746V75.85H224.139V64.3H225.393V65.356ZM232.363 65.334C232.605 65.048 232.957 64.784 233.397 64.52C233.837 64.278 234.409 64.146 235.069 64.146C235.443 64.146 235.839 64.212 236.235 64.3C236.631 64.41 237.005 64.586 237.335 64.806C237.643 65.026 237.907 65.312 238.127 65.664C238.325 66.016 238.435 66.456 238.435 66.94V72H237.203V71.296C236.983 71.56 236.719 71.758 236.367 71.912C236.015 72.088 235.597 72.154 235.069 72.154C234.717 72.154 234.365 72.132 234.035 72.044C233.705 71.956 233.419 71.846 233.155 71.67C232.891 71.494 232.693 71.274 232.539 71.01C232.385 70.746 232.319 70.438 232.319 70.042C232.363 69.536 232.517 69.14 232.781 68.832C233.045 68.546 233.353 68.326 233.705 68.172C234.057 68.04 234.453 67.93 234.871 67.886C235.267 67.842 235.641 67.776 235.993 67.71C236.345 67.666 236.631 67.578 236.851 67.468C237.071 67.38 237.203 67.204 237.203 66.94C237.203 66.39 237.005 65.972 236.631 65.664C236.235 65.378 235.729 65.224 235.069 65.224C234.475 65.224 233.991 65.378 233.595 65.642C233.199 65.906 232.869 66.214 232.649 66.544L232.363 65.334ZM235.201 71.076C235.685 71.076 236.103 70.988 236.433 70.79C236.763 70.614 237.027 70.394 237.203 70.13V68.37C237.049 68.48 236.829 68.59 236.543 68.678C236.257 68.766 235.883 68.81 235.443 68.81C235.267 68.81 235.069 68.832 234.849 68.876C234.629 68.92 234.409 69.008 234.233 69.096C234.035 69.184 233.881 69.316 233.749 69.47C233.617 69.646 233.551 69.822 233.551 70.042C233.551 70.306 233.595 70.504 233.727 70.636C233.837 70.768 233.969 70.878 234.145 70.944C234.321 71.01 234.497 71.054 234.695 71.054C234.871 71.076 235.047 71.076 235.201 71.076ZM244.665 65.576C244.577 65.51 244.467 65.444 244.357 65.356C244.225 65.268 244.093 65.224 243.917 65.224C243.653 65.224 243.389 65.356 243.147 65.598C242.883 65.862 242.663 66.17 242.487 66.544C242.289 66.918 242.135 67.336 242.025 67.798C241.915 68.26 241.871 68.7 241.871 69.096V72H240.639V64.3H241.871V66.17C242.047 65.62 242.311 65.136 242.685 64.74C243.037 64.344 243.455 64.146 243.917 64.146C244.137 64.146 244.335 64.168 244.511 64.212L244.665 64.3V65.576ZM251.051 67.446C251.007 66.698 250.831 66.148 250.479 65.774C250.127 65.422 249.643 65.224 249.027 65.224C248.411 65.224 247.883 65.422 247.487 65.796C247.069 66.192 246.805 66.742 246.717 67.446H251.051ZM252.305 68.524H246.717C246.717 69.448 246.937 70.108 247.421 70.504C247.905 70.9 248.521 71.076 249.269 71.076C249.929 71.076 250.435 71.01 250.809 70.834C251.183 70.658 251.491 70.482 251.733 70.306V71.384C251.491 71.56 251.183 71.736 250.809 71.912C250.435 72.088 249.929 72.154 249.269 72.154C248.697 72.154 248.191 72.088 247.729 71.934C247.267 71.78 246.871 71.538 246.541 71.208C246.189 70.9 245.925 70.482 245.749 69.976C245.551 69.492 245.463 68.876 245.463 68.172C245.463 67.6 245.551 67.05 245.727 66.544C245.903 66.06 246.145 65.62 246.475 65.268C246.783 64.916 247.157 64.652 247.597 64.454C248.037 64.256 248.499 64.146 249.027 64.146C250.039 64.146 250.853 64.454 251.425 65.07C251.997 65.686 252.305 66.61 252.305 67.842V68.524ZM261.439 74.904C261.439 74.926 261.505 74.926 261.593 74.926C262.011 74.926 262.341 74.882 262.583 74.75C262.803 74.618 263.023 74.31 263.221 73.826L263.859 72.176L260.845 64.3H262.231L264.519 70.944L266.939 64.3H268.259L264.651 73.562C263.991 75.19 263.089 76.004 261.901 76.004C261.725 76.004 261.593 76.004 261.483 76.004C261.373 76.004 261.263 75.982 261.175 75.938L261.439 74.904ZM272.77 72.154C271.67 72.154 270.768 71.824 270.108 71.142C269.426 70.482 269.096 69.514 269.096 68.26C269.096 66.94 269.426 65.906 270.086 65.202C270.746 64.498 271.692 64.146 272.946 64.146C273.474 64.146 273.98 64.256 274.442 64.432C274.882 64.608 275.278 64.872 275.608 65.224C275.938 65.576 276.202 65.972 276.378 66.456C276.554 66.94 276.642 67.49 276.642 68.084C276.642 69.47 276.29 70.504 275.63 71.164C274.97 71.824 274.002 72.154 272.77 72.154ZM272.77 71.076C273.606 71.076 274.244 70.812 274.706 70.284C275.168 69.756 275.41 69.03 275.41 68.084C275.41 67.248 275.168 66.544 274.728 66.016C274.288 65.488 273.694 65.224 272.946 65.224C272.154 65.224 271.516 65.51 271.032 66.06C270.548 66.61 270.328 67.336 270.328 68.26C270.328 69.118 270.548 69.8 270.988 70.306C271.428 70.834 272.022 71.076 272.77 71.076ZM279.681 64.3V69.492C279.681 70.02 279.857 70.416 280.253 70.68C280.649 70.944 281.111 71.076 281.683 71.076C281.947 71.076 282.211 71.032 282.475 70.9C282.739 70.79 282.959 70.614 283.157 70.372C283.355 70.13 283.509 69.822 283.641 69.448C283.751 69.096 283.817 68.656 283.817 68.15V64.3H285.071V72H283.817V70.988C283.751 71.208 283.641 71.384 283.487 71.516C283.333 71.67 283.157 71.802 282.959 71.89C282.761 71.978 282.541 72.044 282.321 72.088C282.101 72.132 281.881 72.154 281.683 72.154C280.605 72.154 279.791 71.912 279.263 71.406C278.713 70.9 278.449 70.24 278.449 69.426V64.3H279.681ZM291.458 65.576C291.37 65.51 291.26 65.444 291.15 65.356C291.018 65.268 290.886 65.224 290.71 65.224C290.446 65.224 290.182 65.356 289.94 65.598C289.676 65.862 289.456 66.17 289.28 66.544C289.082 66.918 288.928 67.336 288.818 67.798C288.708 68.26 288.664 68.7 288.664 69.096V72H287.432V64.3H288.664V66.17C288.84 65.62 289.104 65.136 289.478 64.74C289.83 64.344 290.248 64.146 290.71 64.146C290.93 64.146 291.128 64.168 291.304 64.212L291.458 64.3V65.576ZM301.018 68.194C301.018 68.59 301.084 68.964 301.238 69.316C301.37 69.668 301.568 69.976 301.832 70.24C302.074 70.504 302.36 70.724 302.69 70.856C302.998 71.01 303.35 71.076 303.702 71.076C304.406 71.076 304.89 70.856 305.198 70.394C305.506 69.954 305.66 69.272 305.66 68.392C305.66 67.292 305.44 66.5 305.022 65.994C304.604 65.488 304.032 65.224 303.284 65.224C302.932 65.224 302.624 65.312 302.36 65.466C302.096 65.62 301.854 65.818 301.656 66.06C301.436 66.324 301.282 66.61 301.172 66.918C301.062 67.226 301.018 67.556 301.018 67.864V68.194ZM301.018 65.356C301.26 64.938 301.568 64.63 301.942 64.432C302.294 64.256 302.756 64.146 303.284 64.146C303.834 64.146 304.34 64.256 304.78 64.454C305.22 64.674 305.616 64.96 305.924 65.312C306.232 65.686 306.452 66.126 306.628 66.654C306.804 67.182 306.892 67.776 306.892 68.392C306.892 69.646 306.606 70.592 306.056 71.208C305.484 71.846 304.714 72.154 303.702 72.154C303.108 72.154 302.602 72.066 302.162 71.846C301.722 71.648 301.326 71.274 301.018 70.746V75.85H299.764V64.3H301.018V65.356ZM307.988 65.334C308.23 65.048 308.582 64.784 309.022 64.52C309.462 64.278 310.034 64.146 310.694 64.146C311.068 64.146 311.464 64.212 311.86 64.3C312.256 64.41 312.63 64.586 312.96 64.806C313.268 65.026 313.532 65.312 313.752 65.664C313.95 66.016 314.06 66.456 314.06 66.94V72H312.828V71.296C312.608 71.56 312.344 71.758 311.992 71.912C311.64 72.088 311.222 72.154 310.694 72.154C310.342 72.154 309.99 72.132 309.66 72.044C309.33 71.956 309.044 71.846 308.78 71.67C308.516 71.494 308.318 71.274 308.164 71.01C308.01 70.746 307.944 70.438 307.944 70.042C307.988 69.536 308.142 69.14 308.406 68.832C308.67 68.546 308.978 68.326 309.33 68.172C309.682 68.04 310.078 67.93 310.496 67.886C310.892 67.842 311.266 67.776 311.618 67.71C311.97 67.666 312.256 67.578 312.476 67.468C312.696 67.38 312.828 67.204 312.828 66.94C312.828 66.39 312.63 65.972 312.256 65.664C311.86 65.378 311.354 65.224 310.694 65.224C310.1 65.224 309.616 65.378 309.22 65.642C308.824 65.906 308.494 66.214 308.274 66.544L307.988 65.334ZM310.826 71.076C311.31 71.076 311.728 70.988 312.058 70.79C312.388 70.614 312.652 70.394 312.828 70.13V68.37C312.674 68.48 312.454 68.59 312.168 68.678C311.882 68.766 311.508 68.81 311.068 68.81C310.892 68.81 310.694 68.832 310.474 68.876C310.254 68.92 310.034 69.008 309.858 69.096C309.66 69.184 309.506 69.316 309.374 69.47C309.242 69.646 309.176 69.822 309.176 70.042C309.176 70.306 309.22 70.504 309.352 70.636C309.462 70.768 309.594 70.878 309.77 70.944C309.946 71.01 310.122 71.054 310.32 71.054C310.496 71.076 310.672 71.076 310.826 71.076ZM320.576 65.796C320.4 65.686 320.158 65.554 319.85 65.422C319.542 65.29 319.08 65.224 318.508 65.224C318.134 65.224 317.826 65.29 317.584 65.378C317.342 65.488 317.232 65.708 317.232 66.016C317.232 66.324 317.32 66.566 317.518 66.72C317.694 66.874 317.936 67.006 318.222 67.094C318.486 67.204 318.794 67.314 319.124 67.402C319.454 67.49 319.762 67.622 320.048 67.798C320.312 67.974 320.554 68.238 320.752 68.546C320.928 68.854 321.038 69.294 321.038 69.822C321.038 70.13 320.994 70.438 320.928 70.702C320.84 70.988 320.708 71.23 320.51 71.45C320.29 71.67 320.004 71.824 319.652 71.956C319.3 72.088 318.838 72.154 318.288 72.154C317.54 72.154 317.012 72.11 316.682 72C316.352 71.912 316.132 71.802 316 71.67V70.262C316.132 70.46 316.396 70.636 316.748 70.812C317.1 70.988 317.628 71.076 318.288 71.076C318.904 71.076 319.322 70.988 319.586 70.812C319.828 70.636 319.96 70.306 319.96 69.822C319.96 69.448 319.85 69.162 319.652 68.942C319.454 68.744 319.212 68.59 318.926 68.458C318.618 68.326 318.31 68.216 317.98 68.128C317.628 68.04 317.32 67.908 317.034 67.754C316.726 67.6 316.484 67.38 316.286 67.116C316.088 66.852 316 66.5 316 66.016C316 65.708 316.066 65.444 316.22 65.202C316.352 64.982 316.55 64.784 316.792 64.63C317.012 64.476 317.276 64.366 317.584 64.278C317.892 64.19 318.2 64.146 318.508 64.146C319.124 64.146 319.586 64.19 319.894 64.256C320.202 64.322 320.422 64.388 320.576 64.454V65.796ZM327.279 65.796C327.103 65.686 326.861 65.554 326.553 65.422C326.245 65.29 325.783 65.224 325.211 65.224C324.837 65.224 324.529 65.29 324.287 65.378C324.045 65.488 323.935 65.708 323.935 66.016C323.935 66.324 324.023 66.566 324.221 66.72C324.397 66.874 324.639 67.006 324.925 67.094C325.189 67.204 325.497 67.314 325.827 67.402C326.157 67.49 326.465 67.622 326.751 67.798C327.015 67.974 327.257 68.238 327.455 68.546C327.631 68.854 327.741 69.294 327.741 69.822C327.741 70.13 327.697 70.438 327.631 70.702C327.543 70.988 327.411 71.23 327.213 71.45C326.993 71.67 326.707 71.824 326.355 71.956C326.003 72.088 325.541 72.154 324.991 72.154C324.243 72.154 323.715 72.11 323.385 72C323.055 71.912 322.835 71.802 322.703 71.67V70.262C322.835 70.46 323.099 70.636 323.451 70.812C323.803 70.988 324.331 71.076 324.991 71.076C325.607 71.076 326.025 70.988 326.289 70.812C326.531 70.636 326.663 70.306 326.663 69.822C326.663 69.448 326.553 69.162 326.355 68.942C326.157 68.744 325.915 68.59 325.629 68.458C325.321 68.326 325.013 68.216 324.683 68.128C324.331 68.04 324.023 67.908 323.737 67.754C323.429 67.6 323.187 67.38 322.989 67.116C322.791 66.852 322.703 66.5 322.703 66.016C322.703 65.708 322.769 65.444 322.923 65.202C323.055 64.982 323.253 64.784 323.495 64.63C323.715 64.476 323.979 64.366 324.287 64.278C324.595 64.19 324.903 64.146 325.211 64.146C325.827 64.146 326.289 64.19 326.597 64.256C326.905 64.322 327.125 64.388 327.279 64.454V65.796ZM330.924 68.194C330.924 68.59 330.99 68.964 331.144 69.316C331.276 69.668 331.474 69.976 331.738 70.24C331.98 70.504 332.266 70.724 332.596 70.856C332.904 71.01 333.256 71.076 333.608 71.076C334.312 71.076 334.796 70.856 335.104 70.394C335.412 69.954 335.566 69.272 335.566 68.392C335.566 67.292 335.346 66.5 334.928 65.994C334.51 65.488 333.938 65.224 333.19 65.224C332.838 65.224 332.53 65.312 332.266 65.466C332.002 65.62 331.76 65.818 331.562 66.06C331.342 66.324 331.188 66.61 331.078 66.918C330.968 67.226 330.924 67.556 330.924 67.864V68.194ZM330.924 65.356C331.166 64.938 331.474 64.63 331.848 64.432C332.2 64.256 332.662 64.146 333.19 64.146C333.74 64.146 334.246 64.256 334.686 64.454C335.126 64.674 335.522 64.96 335.83 65.312C336.138 65.686 336.358 66.126 336.534 66.654C336.71 67.182 336.798 67.776 336.798 68.392C336.798 69.646 336.512 70.592 335.962 71.208C335.39 71.846 334.62 72.154 333.608 72.154C333.014 72.154 332.508 72.066 332.068 71.846C331.628 71.648 331.232 71.274 330.924 70.746V75.85H329.67V64.3H330.924V65.356ZM341.348 72.154C340.248 72.154 339.346 71.824 338.686 71.142C338.004 70.482 337.674 69.514 337.674 68.26C337.674 66.94 338.004 65.906 338.664 65.202C339.324 64.498 340.27 64.146 341.524 64.146C342.052 64.146 342.558 64.256 343.02 64.432C343.46 64.608 343.856 64.872 344.186 65.224C344.516 65.576 344.78 65.972 344.956 66.456C345.132 66.94 345.22 67.49 345.22 68.084C345.22 69.47 344.868 70.504 344.208 71.164C343.548 71.824 342.58 72.154 341.348 72.154ZM341.348 71.076C342.184 71.076 342.822 70.812 343.284 70.284C343.746 69.756 343.988 69.03 343.988 68.084C343.988 67.248 343.746 66.544 343.306 66.016C342.866 65.488 342.272 65.224 341.524 65.224C340.732 65.224 340.094 65.51 339.61 66.06C339.126 66.61 338.906 67.336 338.906 68.26C338.906 69.118 339.126 69.8 339.566 70.306C340.006 70.834 340.6 71.076 341.348 71.076ZM351.163 65.576C351.075 65.51 350.965 65.444 350.855 65.356C350.723 65.268 350.591 65.224 350.415 65.224C350.151 65.224 349.887 65.356 349.645 65.598C349.381 65.862 349.161 66.17 348.985 66.544C348.787 66.918 348.633 67.336 348.523 67.798C348.413 68.26 348.369 68.7 348.369 69.096V72H347.137V64.3H348.369V66.17C348.545 65.62 348.809 65.136 349.183 64.74C349.535 64.344 349.953 64.146 350.415 64.146C350.635 64.146 350.833 64.168 351.009 64.212L351.163 64.3V65.576ZM351.323 64.3H352.885V60.45H354.161V64.3H356.427V65.378H354.161V69.338C354.161 69.976 354.249 70.416 354.469 70.636C354.667 70.878 355.019 70.988 355.503 70.988C355.943 70.988 356.251 70.878 356.427 70.658V71.912C356.075 72.088 355.613 72.154 355.085 72.154C354.315 72.154 353.765 71.912 353.413 71.406C353.061 70.922 352.885 70.218 352.885 69.338V65.378H351.323V64.3ZM357.879 70.768H359.111V72H357.879V70.768Z" fill="#2B2A2A"/>
<path d="M137.748 167.992C137.748 167.332 137.55 166.826 137.198 166.496C136.846 166.166 136.384 165.99 135.834 165.99C135.35 165.99 134.866 166.122 134.382 166.364C133.876 166.628 133.458 166.914 133.128 167.266V165.946C133.436 165.638 133.81 165.374 134.272 165.198C134.712 165.022 135.24 164.912 135.834 164.912C136.758 164.912 137.506 165.176 138.1 165.682C138.694 166.21 139.002 166.936 139.002 167.86C139.002 168.41 138.87 168.916 138.65 169.356C138.408 169.818 138.1 170.258 137.748 170.654C137.396 171.05 137 171.446 136.582 171.798L135.394 172.854C135.02 173.206 134.712 173.536 134.448 173.888C134.184 174.24 134.03 174.57 133.986 174.922H139.398V176H132.732V174.988C132.732 174.57 132.842 174.152 133.106 173.756C133.348 173.36 133.656 172.986 134.03 172.612C134.382 172.238 134.8 171.864 135.24 171.49C135.68 171.138 136.076 170.764 136.45 170.39C136.802 170.016 137.11 169.62 137.374 169.224C137.616 168.828 137.748 168.432 137.748 167.992ZM141.138 174.768H142.37V176H141.138V174.768ZM159.844 175.582C159.404 175.846 158.92 176.022 158.436 176.066C157.93 176.132 157.38 176.154 156.808 176.154C156.016 176.154 155.29 176.044 154.652 175.78C154.014 175.538 153.464 175.186 153.024 174.724C152.584 174.262 152.232 173.69 151.99 173.03C151.748 172.37 151.638 171.622 151.638 170.786C151.638 169.862 151.77 169.048 152.056 168.344C152.342 167.64 152.738 167.024 153.266 166.54C153.794 166.056 154.41 165.704 155.114 165.44C155.818 165.198 156.61 165.066 157.446 165.066C157.93 165.066 158.348 165.088 158.744 165.11C159.14 165.154 159.492 165.242 159.844 165.396V166.716C159.404 166.518 158.964 166.364 158.524 166.276C158.084 166.188 157.622 166.144 157.182 166.144C156.566 166.144 155.994 166.276 155.466 166.496C154.938 166.716 154.476 167.046 154.102 167.442C153.706 167.838 153.42 168.322 153.2 168.894C152.98 169.466 152.87 170.104 152.87 170.786C152.87 172.172 153.222 173.228 153.97 173.976C154.696 174.724 155.686 175.076 156.94 175.076C157.49 175.076 157.996 175.032 158.48 174.9C158.942 174.79 159.404 174.614 159.844 174.394V175.582ZM165.284 176.154C164.184 176.154 163.282 175.824 162.622 175.142C161.94 174.482 161.61 173.514 161.61 172.26C161.61 170.94 161.94 169.906 162.6 169.202C163.26 168.498 164.206 168.146 165.46 168.146C165.988 168.146 166.494 168.256 166.956 168.432C167.396 168.608 167.792 168.872 168.122 169.224C168.452 169.576 168.716 169.972 168.892 170.456C169.068 170.94 169.156 171.49 169.156 172.084C169.156 173.47 168.804 174.504 168.144 175.164C167.484 175.824 166.516 176.154 165.284 176.154ZM165.284 175.076C166.12 175.076 166.758 174.812 167.22 174.284C167.682 173.756 167.924 173.03 167.924 172.084C167.924 171.248 167.682 170.544 167.242 170.016C166.802 169.488 166.208 169.224 165.46 169.224C164.668 169.224 164.03 169.51 163.546 170.06C163.062 170.61 162.842 171.336 162.842 172.26C162.842 173.118 163.062 173.8 163.502 174.306C163.942 174.834 164.536 175.076 165.284 175.076ZM176.462 176V170.808C176.462 170.28 176.264 169.884 175.868 169.62C175.472 169.356 175.01 169.224 174.46 169.224C174.174 169.224 173.91 169.29 173.646 169.4C173.382 169.532 173.162 169.708 172.964 169.95C172.766 170.192 172.612 170.5 172.502 170.852C172.37 171.226 172.326 171.666 172.326 172.15V176H171.072V168.3H172.326V169.312C172.37 169.114 172.48 168.938 172.634 168.784C172.766 168.652 172.942 168.52 173.14 168.432C173.338 168.344 173.558 168.256 173.778 168.212C173.998 168.168 174.24 168.146 174.46 168.146C175.516 168.146 176.33 168.41 176.88 168.916C177.408 169.422 177.694 170.082 177.694 170.874V176H176.462ZM184.257 169.796C184.081 169.686 183.839 169.554 183.531 169.422C183.223 169.29 182.761 169.224 182.189 169.224C181.815 169.224 181.507 169.29 181.265 169.378C181.023 169.488 180.913 169.708 180.913 170.016C180.913 170.324 181.001 170.566 181.199 170.72C181.375 170.874 181.617 171.006 181.903 171.094C182.167 171.204 182.475 171.314 182.805 171.402C183.135 171.49 183.443 171.622 183.729 171.798C183.993 171.974 184.235 172.238 184.433 172.546C184.609 172.854 184.719 173.294 184.719 173.822C184.719 174.13 184.675 174.438 184.609 174.702C184.521 174.988 184.389 175.23 184.191 175.45C183.971 175.67 183.685 175.824 183.333 175.956C182.981 176.088 182.519 176.154 181.969 176.154C181.221 176.154 180.693 176.11 180.363 176C180.033 175.912 179.813 175.802 179.681 175.67V174.262C179.813 174.46 180.077 174.636 180.429 174.812C180.781 174.988 181.309 175.076 181.969 175.076C182.585 175.076 183.003 174.988 183.267 174.812C183.509 174.636 183.641 174.306 183.641 173.822C183.641 173.448 183.531 173.162 183.333 172.942C183.135 172.744 182.893 172.59 182.607 172.458C182.299 172.326 181.991 172.216 181.661 172.128C181.309 172.04 181.001 171.908 180.715 171.754C180.407 171.6 180.165 171.38 179.967 171.116C179.769 170.852 179.681 170.5 179.681 170.016C179.681 169.708 179.747 169.444 179.901 169.202C180.033 168.982 180.231 168.784 180.473 168.63C180.693 168.476 180.957 168.366 181.265 168.278C181.573 168.19 181.881 168.146 182.189 168.146C182.805 168.146 183.267 168.19 183.575 168.256C183.883 168.322 184.103 168.388 184.257 168.454V169.796ZM187.77 168.3V173.492C187.77 174.02 187.946 174.416 188.342 174.68C188.738 174.944 189.2 175.076 189.772 175.076C190.036 175.076 190.3 175.032 190.564 174.9C190.828 174.79 191.048 174.614 191.246 174.372C191.444 174.13 191.598 173.822 191.73 173.448C191.84 173.096 191.906 172.656 191.906 172.15V168.3H193.16V176H191.906V174.988C191.84 175.208 191.73 175.384 191.576 175.516C191.422 175.67 191.246 175.802 191.048 175.89C190.85 175.978 190.63 176.044 190.41 176.088C190.19 176.132 189.97 176.154 189.772 176.154C188.694 176.154 187.88 175.912 187.352 175.406C186.802 174.9 186.538 174.24 186.538 173.426V168.3H187.77ZM195.521 164.45H196.753V176H195.521V164.45ZM198.182 168.3H199.744V164.45H201.02V168.3H203.286V169.378H201.02V173.338C201.02 173.976 201.108 174.416 201.328 174.636C201.526 174.878 201.878 174.988 202.362 174.988C202.802 174.988 203.11 174.878 203.286 174.658V175.912C202.934 176.088 202.472 176.154 201.944 176.154C201.174 176.154 200.624 175.912 200.272 175.406C199.92 174.922 199.744 174.218 199.744 173.338V169.378H198.182V168.3ZM211.631 169.334C211.873 169.048 212.225 168.784 212.665 168.52C213.105 168.278 213.677 168.146 214.337 168.146C214.711 168.146 215.107 168.212 215.503 168.3C215.899 168.41 216.273 168.586 216.603 168.806C216.911 169.026 217.175 169.312 217.395 169.664C217.593 170.016 217.703 170.456 217.703 170.94V176H216.471V175.296C216.251 175.56 215.987 175.758 215.635 175.912C215.283 176.088 214.865 176.154 214.337 176.154C213.985 176.154 213.633 176.132 213.303 176.044C212.973 175.956 212.687 175.846 212.423 175.67C212.159 175.494 211.961 175.274 211.807 175.01C211.653 174.746 211.587 174.438 211.587 174.042C211.631 173.536 211.785 173.14 212.049 172.832C212.313 172.546 212.621 172.326 212.973 172.172C213.325 172.04 213.721 171.93 214.139 171.886C214.535 171.842 214.909 171.776 215.261 171.71C215.613 171.666 215.899 171.578 216.119 171.468C216.339 171.38 216.471 171.204 216.471 170.94C216.471 170.39 216.273 169.972 215.899 169.664C215.503 169.378 214.997 169.224 214.337 169.224C213.743 169.224 213.259 169.378 212.863 169.642C212.467 169.906 212.137 170.214 211.917 170.544L211.631 169.334ZM214.469 175.076C214.953 175.076 215.371 174.988 215.701 174.79C216.031 174.614 216.295 174.394 216.471 174.13V172.37C216.317 172.48 216.097 172.59 215.811 172.678C215.525 172.766 215.151 172.81 214.711 172.81C214.535 172.81 214.337 172.832 214.117 172.876C213.897 172.92 213.677 173.008 213.501 173.096C213.303 173.184 213.149 173.316 213.017 173.47C212.885 173.646 212.819 173.822 212.819 174.042C212.819 174.306 212.863 174.504 212.995 174.636C213.105 174.768 213.237 174.878 213.413 174.944C213.589 175.01 213.765 175.054 213.963 175.054C214.139 175.076 214.315 175.076 214.469 175.076ZM232.386 176V170.808C232.386 170.28 232.188 169.884 231.792 169.62C231.396 169.356 230.934 169.224 230.384 169.224C230.098 169.224 229.834 169.29 229.57 169.4C229.306 169.532 229.086 169.708 228.888 169.95C228.69 170.192 228.536 170.5 228.426 170.852C228.294 171.226 228.25 171.666 228.25 172.15V176H226.996V168.3H228.25V169.312C228.294 169.114 228.404 168.938 228.558 168.784C228.69 168.652 228.866 168.52 229.064 168.432C229.262 168.344 229.482 168.256 229.702 168.212C229.922 168.168 230.164 168.146 230.384 168.146C231.44 168.146 232.254 168.41 232.804 168.916C233.332 169.422 233.618 170.082 233.618 170.874V176H232.386ZM236.991 168.3V173.492C236.991 174.02 237.167 174.416 237.563 174.68C237.959 174.944 238.421 175.076 238.993 175.076C239.257 175.076 239.521 175.032 239.785 174.9C240.049 174.79 240.269 174.614 240.467 174.372C240.665 174.13 240.819 173.822 240.951 173.448C241.061 173.096 241.127 172.656 241.127 172.15V168.3H242.381V176H241.127V174.988C241.061 175.208 240.951 175.384 240.797 175.516C240.643 175.67 240.467 175.802 240.269 175.89C240.071 175.978 239.851 176.044 239.631 176.088C239.411 176.132 239.191 176.154 238.993 176.154C237.915 176.154 237.101 175.912 236.573 175.406C236.023 174.9 235.759 174.24 235.759 173.426V168.3H236.991ZM248.768 169.576C248.68 169.51 248.57 169.444 248.46 169.356C248.328 169.268 248.196 169.224 248.02 169.224C247.756 169.224 247.492 169.356 247.25 169.598C246.986 169.862 246.766 170.17 246.59 170.544C246.392 170.918 246.238 171.336 246.128 171.798C246.018 172.26 245.974 172.7 245.974 173.096V176H244.742V168.3H245.974V170.17C246.15 169.62 246.414 169.136 246.788 168.74C247.14 168.344 247.558 168.146 248.02 168.146C248.24 168.146 248.438 168.168 248.614 168.212L248.768 168.3V169.576ZM254.296 169.796C254.12 169.686 253.878 169.554 253.57 169.422C253.262 169.29 252.8 169.224 252.228 169.224C251.854 169.224 251.546 169.29 251.304 169.378C251.062 169.488 250.952 169.708 250.952 170.016C250.952 170.324 251.04 170.566 251.238 170.72C251.414 170.874 251.656 171.006 251.942 171.094C252.206 171.204 252.514 171.314 252.844 171.402C253.174 171.49 253.482 171.622 253.768 171.798C254.032 171.974 254.274 172.238 254.472 172.546C254.648 172.854 254.758 173.294 254.758 173.822C254.758 174.13 254.714 174.438 254.648 174.702C254.56 174.988 254.428 175.23 254.23 175.45C254.01 175.67 253.724 175.824 253.372 175.956C253.02 176.088 252.558 176.154 252.008 176.154C251.26 176.154 250.732 176.11 250.402 176C250.072 175.912 249.852 175.802 249.72 175.67V174.262C249.852 174.46 250.116 174.636 250.468 174.812C250.82 174.988 251.348 175.076 252.008 175.076C252.624 175.076 253.042 174.988 253.306 174.812C253.548 174.636 253.68 174.306 253.68 173.822C253.68 173.448 253.57 173.162 253.372 172.942C253.174 172.744 252.932 172.59 252.646 172.458C252.338 172.326 252.03 172.216 251.7 172.128C251.348 172.04 251.04 171.908 250.754 171.754C250.446 171.6 250.204 171.38 250.006 171.116C249.808 170.852 249.72 170.5 249.72 170.016C249.72 169.708 249.786 169.444 249.94 169.202C250.072 168.982 250.27 168.784 250.512 168.63C250.732 168.476 250.996 168.366 251.304 168.278C251.612 168.19 251.92 168.146 252.228 168.146C252.844 168.146 253.306 168.19 253.614 168.256C253.922 168.322 254.142 168.388 254.296 168.454V169.796ZM261.857 171.446C261.813 170.698 261.637 170.148 261.285 169.774C260.933 169.422 260.449 169.224 259.833 169.224C259.217 169.224 258.689 169.422 258.293 169.796C257.875 170.192 257.611 170.742 257.523 171.446H261.857ZM263.111 172.524H257.523C257.523 173.448 257.743 174.108 258.227 174.504C258.711 174.9 259.327 175.076 260.075 175.076C260.735 175.076 261.241 175.01 261.615 174.834C261.989 174.658 262.297 174.482 262.539 174.306V175.384C262.297 175.56 261.989 175.736 261.615 175.912C261.241 176.088 260.735 176.154 260.075 176.154C259.503 176.154 258.997 176.088 258.535 175.934C258.073 175.78 257.677 175.538 257.347 175.208C256.995 174.9 256.731 174.482 256.555 173.976C256.357 173.492 256.269 172.876 256.269 172.172C256.269 171.6 256.357 171.05 256.533 170.544C256.709 170.06 256.951 169.62 257.281 169.268C257.589 168.916 257.963 168.652 258.403 168.454C258.843 168.256 259.305 168.146 259.833 168.146C260.845 168.146 261.659 168.454 262.231 169.07C262.803 169.686 263.111 170.61 263.111 171.842V172.524ZM274.072 179.102C273.192 178.134 272.532 177.056 272.092 175.868C271.652 174.68 271.432 173.36 271.432 171.886C271.432 170.39 271.652 169.026 272.092 167.816C272.532 166.628 273.192 165.506 274.072 164.472H275.282C273.522 166.628 272.664 169.092 272.664 171.886C272.664 174.658 273.522 177.056 275.282 179.102H274.072ZM285.506 176H283.966L278.158 167.046V176H276.926V165.22H278.488L284.274 174.284V165.22H285.506V176ZM291.139 176.154C290.039 176.154 289.137 175.824 288.477 175.142C287.795 174.482 287.465 173.514 287.465 172.26C287.465 170.94 287.795 169.906 288.455 169.202C289.115 168.498 290.061 168.146 291.315 168.146C291.843 168.146 292.349 168.256 292.811 168.432C293.251 168.608 293.647 168.872 293.977 169.224C294.307 169.576 294.571 169.972 294.747 170.456C294.923 170.94 295.011 171.49 295.011 172.084C295.011 173.47 294.659 174.504 293.999 175.164C293.339 175.824 292.371 176.154 291.139 176.154ZM291.139 175.076C291.975 175.076 292.613 174.812 293.075 174.284C293.537 173.756 293.779 173.03 293.779 172.084C293.779 171.248 293.537 170.544 293.097 170.016C292.657 169.488 292.063 169.224 291.315 169.224C290.523 169.224 289.885 169.51 289.401 170.06C288.917 170.61 288.697 171.336 288.697 172.26C288.697 173.118 288.917 173.8 289.357 174.306C289.797 174.834 290.391 175.076 291.139 175.076ZM309.496 175.758C309.188 175.956 308.88 176.066 308.55 176.11C308.22 176.154 307.868 176.154 307.494 176.154C306.262 176.154 305.294 175.846 304.568 175.208C303.842 174.592 303.49 173.602 303.49 172.282C303.49 171.666 303.578 171.094 303.798 170.566C303.996 170.06 304.282 169.62 304.634 169.268C304.986 168.916 305.426 168.63 305.91 168.432C306.394 168.256 306.944 168.146 307.538 168.146C307.802 168.146 308.066 168.168 308.308 168.19C308.528 168.212 308.748 168.234 308.924 168.256L309.496 168.344V169.62C309.166 169.488 308.836 169.378 308.528 169.312C308.198 169.268 307.868 169.224 307.538 169.224C305.646 169.224 304.722 170.258 304.722 172.282C304.722 173.272 304.92 173.976 305.36 174.416C305.8 174.856 306.46 175.076 307.362 175.076C307.758 175.076 308.132 175.054 308.484 174.966C308.836 174.9 309.166 174.79 309.496 174.614V175.758ZM317.185 176V170.808C317.185 170.28 316.987 169.862 316.591 169.554C316.195 169.246 315.733 169.07 315.183 169.07C314.897 169.07 314.633 169.136 314.369 169.268C314.105 169.4 313.885 169.598 313.687 169.862C313.489 170.126 313.335 170.456 313.225 170.83C313.093 171.226 313.049 171.666 313.049 172.15V176H311.795V164.45H313.049V169.312C313.093 169.114 313.203 168.938 313.357 168.762C313.489 168.608 313.665 168.476 313.863 168.344C314.061 168.234 314.281 168.146 314.501 168.08C314.721 168.036 314.963 167.992 315.183 167.992C316.239 167.992 317.031 168.278 317.581 168.806C318.131 169.356 318.417 170.038 318.417 170.874V176H317.185ZM320.213 169.334C320.455 169.048 320.807 168.784 321.247 168.52C321.687 168.278 322.259 168.146 322.919 168.146C323.293 168.146 323.689 168.212 324.085 168.3C324.481 168.41 324.855 168.586 325.185 168.806C325.493 169.026 325.757 169.312 325.977 169.664C326.175 170.016 326.285 170.456 326.285 170.94V176H325.053V175.296C324.833 175.56 324.569 175.758 324.217 175.912C323.865 176.088 323.447 176.154 322.919 176.154C322.567 176.154 322.215 176.132 321.885 176.044C321.555 175.956 321.269 175.846 321.005 175.67C320.741 175.494 320.543 175.274 320.389 175.01C320.235 174.746 320.169 174.438 320.169 174.042C320.213 173.536 320.367 173.14 320.631 172.832C320.895 172.546 321.203 172.326 321.555 172.172C321.907 172.04 322.303 171.93 322.721 171.886C323.117 171.842 323.491 171.776 323.843 171.71C324.195 171.666 324.481 171.578 324.701 171.468C324.921 171.38 325.053 171.204 325.053 170.94C325.053 170.39 324.855 169.972 324.481 169.664C324.085 169.378 323.579 169.224 322.919 169.224C322.325 169.224 321.841 169.378 321.445 169.642C321.049 169.906 320.719 170.214 320.499 170.544L320.213 169.334ZM323.051 175.076C323.535 175.076 323.953 174.988 324.283 174.79C324.613 174.614 324.877 174.394 325.053 174.13V172.37C324.899 172.48 324.679 172.59 324.393 172.678C324.107 172.766 323.733 172.81 323.293 172.81C323.117 172.81 322.919 172.832 322.699 172.876C322.479 172.92 322.259 173.008 322.083 173.096C321.885 173.184 321.731 173.316 321.599 173.47C321.467 173.646 321.401 173.822 321.401 174.042C321.401 174.306 321.445 174.504 321.577 174.636C321.687 174.768 321.819 174.878 321.995 174.944C322.171 175.01 322.347 175.054 322.545 175.054C322.721 175.076 322.897 175.076 323.051 175.076ZM332.514 169.576C332.426 169.51 332.316 169.444 332.206 169.356C332.074 169.268 331.942 169.224 331.766 169.224C331.502 169.224 331.238 169.356 330.996 169.598C330.732 169.862 330.512 170.17 330.336 170.544C330.138 170.918 329.984 171.336 329.874 171.798C329.764 172.26 329.72 172.7 329.72 173.096V176H328.488V168.3H329.72V170.17C329.896 169.62 330.16 169.136 330.534 168.74C330.886 168.344 331.304 168.146 331.766 168.146C331.986 168.146 332.184 168.168 332.36 168.212L332.514 168.3V169.576ZM339.362 171.842C339.274 171.578 339.164 171.292 339.032 170.984C338.9 170.676 338.746 170.412 338.548 170.148C338.35 169.884 338.108 169.664 337.844 169.488C337.58 169.312 337.25 169.224 336.898 169.224C336.502 169.224 336.15 169.312 335.842 169.488C335.534 169.664 335.292 169.906 335.072 170.192C334.852 170.5 334.698 170.83 334.588 171.182C334.478 171.556 334.434 171.93 334.434 172.304C334.434 172.7 334.478 173.052 334.588 173.382C334.698 173.734 334.852 174.02 335.072 174.262C335.292 174.526 335.534 174.724 335.842 174.856C336.15 175.01 336.502 175.076 336.898 175.076C337.272 175.076 337.602 175.01 337.866 174.878C338.13 174.746 338.372 174.57 338.57 174.35C338.746 174.13 338.9 173.91 339.032 173.646C339.164 173.382 339.274 173.14 339.362 172.92V171.842ZM334.17 178.486C334.566 178.684 334.962 178.838 335.336 178.948C335.688 179.058 336.04 179.102 336.37 179.102C338.35 179.102 339.362 178.068 339.362 175.978V175.032C339.186 175.296 339.01 175.494 338.834 175.648C338.658 175.802 338.482 175.912 338.306 175.978C338.13 176.066 337.91 176.11 337.69 176.132C337.47 176.154 337.206 176.154 336.898 176.154C336.37 176.154 335.886 176.066 335.446 175.89C335.006 175.714 334.61 175.45 334.28 175.098C333.95 174.768 333.686 174.372 333.488 173.888C333.29 173.426 333.202 172.898 333.202 172.304C333.202 171.6 333.29 171.006 333.488 170.478C333.686 169.95 333.95 169.532 334.28 169.18C334.61 168.828 335.006 168.586 335.446 168.41C335.886 168.234 336.37 168.146 336.898 168.146C337.514 168.146 337.998 168.256 338.372 168.454C338.724 168.652 339.054 168.982 339.362 169.422V168.3H340.594V175.758C340.594 177.276 340.242 178.398 339.582 179.102C338.9 179.806 337.822 180.158 336.37 180.158C335.424 180.158 334.588 180.026 333.884 179.718L334.17 178.486ZM347.967 171.446C347.923 170.698 347.747 170.148 347.395 169.774C347.043 169.422 346.559 169.224 345.943 169.224C345.327 169.224 344.799 169.422 344.403 169.796C343.985 170.192 343.721 170.742 343.633 171.446H347.967ZM349.221 172.524H343.633C343.633 173.448 343.853 174.108 344.337 174.504C344.821 174.9 345.437 175.076 346.185 175.076C346.845 175.076 347.351 175.01 347.725 174.834C348.099 174.658 348.407 174.482 348.649 174.306V175.384C348.407 175.56 348.099 175.736 347.725 175.912C347.351 176.088 346.845 176.154 346.185 176.154C345.613 176.154 345.107 176.088 344.645 175.934C344.183 175.78 343.787 175.538 343.457 175.208C343.105 174.9 342.841 174.482 342.665 173.976C342.467 173.492 342.379 172.876 342.379 172.172C342.379 171.6 342.467 171.05 342.643 170.544C342.819 170.06 343.061 169.62 343.391 169.268C343.699 168.916 344.073 168.652 344.513 168.454C344.953 168.256 345.415 168.146 345.943 168.146C346.955 168.146 347.769 168.454 348.341 169.07C348.913 169.686 349.221 170.61 349.221 171.842V172.524ZM350.407 179.102C352.145 177.056 353.025 174.658 353.025 171.886C353.025 169.092 352.145 166.628 350.407 164.472H351.617C352.497 165.506 353.157 166.628 353.597 167.816C354.037 169.026 354.257 170.39 354.257 171.886C354.257 173.36 354.037 174.68 353.597 175.868C353.157 177.056 352.497 178.134 351.617 179.102H350.407ZM355.946 174.768H357.178V176H355.946V174.768Z" fill="#2B2A2A"/>
<path d="M139.15 280.052C139.15 281.064 138.798 281.834 138.138 282.362C137.456 282.89 136.554 283.154 135.41 283.154C134.882 283.154 134.398 283.132 134.002 283.088C133.584 283.044 133.232 282.934 132.924 282.758V281.394C133.276 281.702 133.65 281.878 134.046 281.966C134.442 282.054 134.904 282.076 135.41 282.076C136.114 282.076 136.686 281.944 137.17 281.636C137.654 281.328 137.896 280.844 137.896 280.162C137.896 279.81 137.83 279.502 137.698 279.238C137.566 278.974 137.346 278.732 137.038 278.556C136.73 278.38 136.312 278.226 135.806 278.138C135.3 278.05 134.684 277.984 133.958 277.984V276.95C134.31 276.95 134.706 276.906 135.124 276.84C135.542 276.774 135.938 276.664 136.29 276.51C136.642 276.378 136.95 276.18 137.192 275.916C137.412 275.652 137.544 275.322 137.544 274.926C137.544 274.266 137.368 273.804 137.038 273.54C136.686 273.276 136.268 273.144 135.784 273.144C135.388 273.144 134.948 273.188 134.486 273.254C134.002 273.342 133.606 273.496 133.276 273.738V272.55C133.628 272.33 134.002 272.198 134.398 272.154C134.794 272.11 135.256 272.066 135.784 272.066C136.202 272.066 136.598 272.132 136.95 272.264C137.302 272.396 137.632 272.572 137.896 272.792C138.16 273.012 138.358 273.276 138.512 273.584C138.644 273.892 138.732 274.222 138.732 274.574C138.732 276.048 138.028 276.994 136.62 277.434C136.95 277.5 137.28 277.61 137.588 277.742C137.896 277.874 138.16 278.05 138.38 278.27C138.6 278.49 138.798 278.754 138.93 279.062C139.062 279.37 139.15 279.7 139.15 280.052ZM141.138 281.768H142.37V283H141.138V281.768ZM159.844 282.582C159.404 282.846 158.92 283.022 158.436 283.066C157.93 283.132 157.38 283.154 156.808 283.154C156.016 283.154 155.29 283.044 154.652 282.78C154.014 282.538 153.464 282.186 153.024 281.724C152.584 281.262 152.232 280.69 151.99 280.03C151.748 279.37 151.638 278.622 151.638 277.786C151.638 276.862 151.77 276.048 152.056 275.344C152.342 274.64 152.738 274.024 153.266 273.54C153.794 273.056 154.41 272.704 155.114 272.44C155.818 272.198 156.61 272.066 157.446 272.066C157.93 272.066 158.348 272.088 158.744 272.11C159.14 272.154 159.492 272.242 159.844 272.396V273.716C159.404 273.518 158.964 273.364 158.524 273.276C158.084 273.188 157.622 273.144 157.182 273.144C156.566 273.144 155.994 273.276 155.466 273.496C154.938 273.716 154.476 274.046 154.102 274.442C153.706 274.838 153.42 275.322 153.2 275.894C152.98 276.466 152.87 277.104 152.87 277.786C152.87 279.172 153.222 280.228 153.97 280.976C154.696 281.724 155.686 282.076 156.94 282.076C157.49 282.076 157.996 282.032 158.48 281.9C158.942 281.79 159.404 281.614 159.844 281.394V282.582ZM165.284 283.154C164.184 283.154 163.282 282.824 162.622 282.142C161.94 281.482 161.61 280.514 161.61 279.26C161.61 277.94 161.94 276.906 162.6 276.202C163.26 275.498 164.206 275.146 165.46 275.146C165.988 275.146 166.494 275.256 166.956 275.432C167.396 275.608 167.792 275.872 168.122 276.224C168.452 276.576 168.716 276.972 168.892 277.456C169.068 277.94 169.156 278.49 169.156 279.084C169.156 280.47 168.804 281.504 168.144 282.164C167.484 282.824 166.516 283.154 165.284 283.154ZM165.284 282.076C166.12 282.076 166.758 281.812 167.22 281.284C167.682 280.756 167.924 280.03 167.924 279.084C167.924 278.248 167.682 277.544 167.242 277.016C166.802 276.488 166.208 276.224 165.46 276.224C164.668 276.224 164.03 276.51 163.546 277.06C163.062 277.61 162.842 278.336 162.842 279.26C162.842 280.118 163.062 280.8 163.502 281.306C163.942 281.834 164.536 282.076 165.284 282.076ZM176.462 283V277.808C176.462 277.28 176.264 276.884 175.868 276.62C175.472 276.356 175.01 276.224 174.46 276.224C174.174 276.224 173.91 276.29 173.646 276.4C173.382 276.532 173.162 276.708 172.964 276.95C172.766 277.192 172.612 277.5 172.502 277.852C172.37 278.226 172.326 278.666 172.326 279.15V283H171.072V275.3H172.326V276.312C172.37 276.114 172.48 275.938 172.634 275.784C172.766 275.652 172.942 275.52 173.14 275.432C173.338 275.344 173.558 275.256 173.778 275.212C173.998 275.168 174.24 275.146 174.46 275.146C175.516 275.146 176.33 275.41 176.88 275.916C177.408 276.422 177.694 277.082 177.694 277.874V283H176.462ZM184.257 276.796C184.081 276.686 183.839 276.554 183.531 276.422C183.223 276.29 182.761 276.224 182.189 276.224C181.815 276.224 181.507 276.29 181.265 276.378C181.023 276.488 180.913 276.708 180.913 277.016C180.913 277.324 181.001 277.566 181.199 277.72C181.375 277.874 181.617 278.006 181.903 278.094C182.167 278.204 182.475 278.314 182.805 278.402C183.135 278.49 183.443 278.622 183.729 278.798C183.993 278.974 184.235 279.238 184.433 279.546C184.609 279.854 184.719 280.294 184.719 280.822C184.719 281.13 184.675 281.438 184.609 281.702C184.521 281.988 184.389 282.23 184.191 282.45C183.971 282.67 183.685 282.824 183.333 282.956C182.981 283.088 182.519 283.154 181.969 283.154C181.221 283.154 180.693 283.11 180.363 283C180.033 282.912 179.813 282.802 179.681 282.67V281.262C179.813 281.46 180.077 281.636 180.429 281.812C180.781 281.988 181.309 282.076 181.969 282.076C182.585 282.076 183.003 281.988 183.267 281.812C183.509 281.636 183.641 281.306 183.641 280.822C183.641 280.448 183.531 280.162 183.333 279.942C183.135 279.744 182.893 279.59 182.607 279.458C182.299 279.326 181.991 279.216 181.661 279.128C181.309 279.04 181.001 278.908 180.715 278.754C180.407 278.6 180.165 278.38 179.967 278.116C179.769 277.852 179.681 277.5 179.681 277.016C179.681 276.708 179.747 276.444 179.901 276.202C180.033 275.982 180.231 275.784 180.473 275.63C180.693 275.476 180.957 275.366 181.265 275.278C181.573 275.19 181.881 275.146 182.189 275.146C182.805 275.146 183.267 275.19 183.575 275.256C183.883 275.322 184.103 275.388 184.257 275.454V276.796ZM187.77 275.3V280.492C187.77 281.02 187.946 281.416 188.342 281.68C188.738 281.944 189.2 282.076 189.772 282.076C190.036 282.076 190.3 282.032 190.564 281.9C190.828 281.79 191.048 281.614 191.246 281.372C191.444 281.13 191.598 280.822 191.73 280.448C191.84 280.096 191.906 279.656 191.906 279.15V275.3H193.16V283H191.906V281.988C191.84 282.208 191.73 282.384 191.576 282.516C191.422 282.67 191.246 282.802 191.048 282.89C190.85 282.978 190.63 283.044 190.41 283.088C190.19 283.132 189.97 283.154 189.772 283.154C188.694 283.154 187.88 282.912 187.352 282.406C186.802 281.9 186.538 281.24 186.538 280.426V275.3H187.77ZM195.521 271.45H196.753V283H195.521V271.45ZM198.182 275.3H199.744V271.45H201.02V275.3H203.286V276.378H201.02V280.338C201.02 280.976 201.108 281.416 201.328 281.636C201.526 281.878 201.878 281.988 202.362 281.988C202.802 281.988 203.11 281.878 203.286 281.658V282.912C202.934 283.088 202.472 283.154 201.944 283.154C201.174 283.154 200.624 282.912 200.272 282.406C199.92 281.922 199.744 281.218 199.744 280.338V276.378H198.182V275.3ZM211.631 276.334C211.873 276.048 212.225 275.784 212.665 275.52C213.105 275.278 213.677 275.146 214.337 275.146C214.711 275.146 215.107 275.212 215.503 275.3C215.899 275.41 216.273 275.586 216.603 275.806C216.911 276.026 217.175 276.312 217.395 276.664C217.593 277.016 217.703 277.456 217.703 277.94V283H216.471V282.296C216.251 282.56 215.987 282.758 215.635 282.912C215.283 283.088 214.865 283.154 214.337 283.154C213.985 283.154 213.633 283.132 213.303 283.044C212.973 282.956 212.687 282.846 212.423 282.67C212.159 282.494 211.961 282.274 211.807 282.01C211.653 281.746 211.587 281.438 211.587 281.042C211.631 280.536 211.785 280.14 212.049 279.832C212.313 279.546 212.621 279.326 212.973 279.172C213.325 279.04 213.721 278.93 214.139 278.886C214.535 278.842 214.909 278.776 215.261 278.71C215.613 278.666 215.899 278.578 216.119 278.468C216.339 278.38 216.471 278.204 216.471 277.94C216.471 277.39 216.273 276.972 215.899 276.664C215.503 276.378 214.997 276.224 214.337 276.224C213.743 276.224 213.259 276.378 212.863 276.642C212.467 276.906 212.137 277.214 211.917 277.544L211.631 276.334ZM214.469 282.076C214.953 282.076 215.371 281.988 215.701 281.79C216.031 281.614 216.295 281.394 216.471 281.13V279.37C216.317 279.48 216.097 279.59 215.811 279.678C215.525 279.766 215.151 279.81 214.711 279.81C214.535 279.81 214.337 279.832 214.117 279.876C213.897 279.92 213.677 280.008 213.501 280.096C213.303 280.184 213.149 280.316 213.017 280.47C212.885 280.646 212.819 280.822 212.819 281.042C212.819 281.306 212.863 281.504 212.995 281.636C213.105 281.768 213.237 281.878 213.413 281.944C213.589 282.01 213.765 282.054 213.963 282.054C214.139 282.076 214.315 282.076 214.469 282.076ZM231.836 279.106C231.836 278.71 231.748 278.336 231.616 277.962C231.462 277.61 231.264 277.28 231.022 276.994C230.758 276.73 230.472 276.51 230.164 276.334C229.834 276.158 229.504 276.07 229.152 276.07C228.448 276.07 227.942 276.334 227.634 276.84C227.326 277.346 227.194 278.028 227.194 278.908C227.194 280.008 227.392 280.822 227.81 281.328C228.228 281.834 228.822 282.076 229.57 282.076C229.878 282.076 230.186 282.01 230.472 281.856C230.736 281.702 230.978 281.504 231.198 281.24C231.396 280.998 231.55 280.712 231.66 280.404C231.77 280.096 231.836 279.766 231.836 279.436V279.106ZM231.836 281.944C231.572 282.384 231.264 282.692 230.912 282.868C230.538 283.066 230.098 283.154 229.57 283.154C228.998 283.154 228.492 283.066 228.052 282.846C227.612 282.648 227.238 282.362 226.93 281.988C226.622 281.636 226.38 281.196 226.204 280.668C226.028 280.14 225.962 279.568 225.962 278.908C225.962 277.72 226.248 276.752 226.82 276.048C227.392 275.344 228.184 274.992 229.152 274.992C230.296 274.992 231.176 275.52 231.836 276.554V271.45H233.09V283H231.836V281.944ZM238.717 283.154C237.617 283.154 236.715 282.824 236.055 282.142C235.373 281.482 235.043 280.514 235.043 279.26C235.043 277.94 235.373 276.906 236.033 276.202C236.693 275.498 237.639 275.146 238.893 275.146C239.421 275.146 239.927 275.256 240.389 275.432C240.829 275.608 241.225 275.872 241.555 276.224C241.885 276.576 242.149 276.972 242.325 277.456C242.501 277.94 242.589 278.49 242.589 279.084C242.589 280.47 242.237 281.504 241.577 282.164C240.917 282.824 239.949 283.154 238.717 283.154ZM238.717 282.076C239.553 282.076 240.191 281.812 240.653 281.284C241.115 280.756 241.357 280.03 241.357 279.084C241.357 278.248 241.115 277.544 240.675 277.016C240.235 276.488 239.641 276.224 238.893 276.224C238.101 276.224 237.463 276.51 236.979 277.06C236.495 277.61 236.275 278.336 236.275 279.26C236.275 280.118 236.495 280.8 236.935 281.306C237.375 281.834 237.969 282.076 238.717 282.076ZM249.984 282.758C249.676 282.956 249.368 283.066 249.038 283.11C248.708 283.154 248.356 283.154 247.982 283.154C246.75 283.154 245.782 282.846 245.056 282.208C244.33 281.592 243.978 280.602 243.978 279.282C243.978 278.666 244.066 278.094 244.286 277.566C244.484 277.06 244.77 276.62 245.122 276.268C245.474 275.916 245.914 275.63 246.398 275.432C246.882 275.256 247.432 275.146 248.026 275.146C248.29 275.146 248.554 275.168 248.796 275.19C249.016 275.212 249.236 275.234 249.412 275.256L249.984 275.344V276.62C249.654 276.488 249.324 276.378 249.016 276.312C248.686 276.268 248.356 276.224 248.026 276.224C246.134 276.224 245.21 277.258 245.21 279.282C245.21 280.272 245.408 280.976 245.848 281.416C246.288 281.856 246.948 282.076 247.85 282.076C248.246 282.076 248.62 282.054 248.972 281.966C249.324 281.9 249.654 281.79 249.984 281.614V282.758ZM251.227 275.3H252.789V271.45H254.065V275.3H256.331V276.378H254.065V280.338C254.065 280.976 254.153 281.416 254.373 281.636C254.571 281.878 254.923 281.988 255.407 281.988C255.847 281.988 256.155 281.878 256.331 281.658V282.912C255.979 283.088 255.517 283.154 254.989 283.154C254.219 283.154 253.669 282.912 253.317 282.406C252.965 281.922 252.789 281.218 252.789 280.338V276.378H251.227V275.3ZM261.04 283.154C259.94 283.154 259.038 282.824 258.378 282.142C257.696 281.482 257.366 280.514 257.366 279.26C257.366 277.94 257.696 276.906 258.356 276.202C259.016 275.498 259.962 275.146 261.216 275.146C261.744 275.146 262.25 275.256 262.712 275.432C263.152 275.608 263.548 275.872 263.878 276.224C264.208 276.576 264.472 276.972 264.648 277.456C264.824 277.94 264.912 278.49 264.912 279.084C264.912 280.47 264.56 281.504 263.9 282.164C263.24 282.824 262.272 283.154 261.04 283.154ZM261.04 282.076C261.876 282.076 262.514 281.812 262.976 281.284C263.438 280.756 263.68 280.03 263.68 279.084C263.68 278.248 263.438 277.544 262.998 277.016C262.558 276.488 261.964 276.224 261.216 276.224C260.424 276.224 259.786 276.51 259.302 277.06C258.818 277.61 258.598 278.336 258.598 279.26C258.598 280.118 258.818 280.8 259.258 281.306C259.698 281.834 260.292 282.076 261.04 282.076ZM270.854 276.576C270.766 276.51 270.656 276.444 270.546 276.356C270.414 276.268 270.282 276.224 270.106 276.224C269.842 276.224 269.578 276.356 269.336 276.598C269.072 276.862 268.852 277.17 268.676 277.544C268.478 277.918 268.324 278.336 268.214 278.798C268.104 279.26 268.06 279.7 268.06 280.096V283H266.828V275.3H268.06V277.17C268.236 276.62 268.5 276.136 268.874 275.74C269.226 275.344 269.644 275.146 270.106 275.146C270.326 275.146 270.524 275.168 270.7 275.212L270.854 275.3V276.576ZM272.092 281.768H273.324V283H272.092V281.768Z" fill="#2B2A2A"/>
<path d="M136.827 377.304V372.09L133.175 377.304H136.827ZM137.971 370.22V377.304H139.379V378.382H137.971V381H136.827V378.382H131.789V377.304L136.761 370.22H137.971ZM141.138 379.768H142.37V381H141.138V379.768ZM153.442 371.298V375.874H154.784C155.664 375.874 156.324 375.676 156.786 375.236C157.248 374.796 157.49 374.224 157.49 373.52C157.49 372.816 157.292 372.266 156.94 371.87C156.588 371.496 155.972 371.298 155.092 371.298H153.442ZM153.442 376.952V381H152.188V370.22H155.092C156.236 370.22 157.138 370.506 157.776 371.056C158.392 371.606 158.722 372.42 158.722 373.52C158.722 374.576 158.37 375.412 157.688 376.028C156.984 376.644 156.016 376.952 154.784 376.952H153.442ZM159.767 374.334C160.009 374.048 160.361 373.784 160.801 373.52C161.241 373.278 161.813 373.146 162.473 373.146C162.847 373.146 163.243 373.212 163.639 373.3C164.035 373.41 164.409 373.586 164.739 373.806C165.047 374.026 165.311 374.312 165.531 374.664C165.729 375.016 165.839 375.456 165.839 375.94V381H164.607V380.296C164.387 380.56 164.123 380.758 163.771 380.912C163.419 381.088 163.001 381.154 162.473 381.154C162.121 381.154 161.769 381.132 161.439 381.044C161.109 380.956 160.823 380.846 160.559 380.67C160.295 380.494 160.097 380.274 159.943 380.01C159.789 379.746 159.723 379.438 159.723 379.042C159.767 378.536 159.921 378.14 160.185 377.832C160.449 377.546 160.757 377.326 161.109 377.172C161.461 377.04 161.857 376.93 162.275 376.886C162.671 376.842 163.045 376.776 163.397 376.71C163.749 376.666 164.035 376.578 164.255 376.468C164.475 376.38 164.607 376.204 164.607 375.94C164.607 375.39 164.409 374.972 164.035 374.664C163.639 374.378 163.133 374.224 162.473 374.224C161.879 374.224 161.395 374.378 160.999 374.642C160.603 374.906 160.273 375.214 160.053 375.544L159.767 374.334ZM162.605 380.076C163.089 380.076 163.507 379.988 163.837 379.79C164.167 379.614 164.431 379.394 164.607 379.13V377.37C164.453 377.48 164.233 377.59 163.947 377.678C163.661 377.766 163.287 377.81 162.847 377.81C162.671 377.81 162.473 377.832 162.253 377.876C162.033 377.92 161.813 378.008 161.637 378.096C161.439 378.184 161.285 378.316 161.153 378.47C161.021 378.646 160.955 378.822 160.955 379.042C160.955 379.306 160.999 379.504 161.131 379.636C161.241 379.768 161.373 379.878 161.549 379.944C161.725 380.01 161.901 380.054 162.099 380.054C162.275 380.076 162.451 380.076 162.605 380.076ZM168.197 383.904C168.197 383.926 168.263 383.926 168.351 383.926C168.769 383.926 169.099 383.882 169.341 383.75C169.561 383.618 169.781 383.31 169.979 382.826L170.617 381.176L167.603 373.3H168.989L171.277 379.944L173.697 373.3H175.017L171.409 382.562C170.749 384.19 169.847 385.004 168.659 385.004C168.483 385.004 168.351 385.004 168.241 385.004C168.131 385.004 168.021 384.982 167.933 384.938L168.197 383.904ZM187.03 381V375.808C187.03 375.28 186.832 374.884 186.436 374.62C186.04 374.356 185.578 374.224 185.028 374.224C184.742 374.224 184.478 374.29 184.214 374.4C183.95 374.532 183.73 374.708 183.532 374.95C183.334 375.192 183.18 375.5 183.07 375.852C182.938 376.226 182.894 376.666 182.894 377.15V381H181.64V375.808C181.64 375.28 181.442 374.884 181.046 374.62C180.65 374.356 180.188 374.224 179.638 374.224C179.352 374.224 179.088 374.29 178.824 374.4C178.56 374.532 178.34 374.708 178.142 374.95C177.944 375.192 177.79 375.5 177.68 375.852C177.548 376.226 177.504 376.666 177.504 377.15V381H176.25V373.3H177.504V374.312C177.548 374.114 177.658 373.938 177.812 373.784C177.944 373.652 178.12 373.52 178.318 373.432C178.516 373.344 178.736 373.256 178.956 373.212C179.176 373.168 179.418 373.146 179.638 373.146C181.09 373.146 182.036 373.586 182.52 374.466C182.74 374.07 183.048 373.74 183.444 373.498C183.84 373.278 184.368 373.146 185.028 373.146C186.084 373.146 186.898 373.41 187.448 373.916C187.976 374.422 188.262 375.082 188.262 375.874V381H187.03ZM195.729 376.446C195.685 375.698 195.509 375.148 195.157 374.774C194.805 374.422 194.321 374.224 193.705 374.224C193.089 374.224 192.561 374.422 192.165 374.796C191.747 375.192 191.483 375.742 191.395 376.446H195.729ZM196.983 377.524H191.395C191.395 378.448 191.615 379.108 192.099 379.504C192.583 379.9 193.199 380.076 193.947 380.076C194.607 380.076 195.113 380.01 195.487 379.834C195.861 379.658 196.169 379.482 196.411 379.306V380.384C196.169 380.56 195.861 380.736 195.487 380.912C195.113 381.088 194.607 381.154 193.947 381.154C193.375 381.154 192.869 381.088 192.407 380.934C191.945 380.78 191.549 380.538 191.219 380.208C190.867 379.9 190.603 379.482 190.427 378.976C190.229 378.492 190.141 377.876 190.141 377.172C190.141 376.6 190.229 376.05 190.405 375.544C190.581 375.06 190.823 374.62 191.153 374.268C191.461 373.916 191.835 373.652 192.275 373.454C192.715 373.256 193.177 373.146 193.705 373.146C194.717 373.146 195.531 373.454 196.103 374.07C196.675 374.686 196.983 375.61 196.983 376.842V377.524ZM204.263 381V375.808C204.263 375.28 204.065 374.884 203.669 374.62C203.273 374.356 202.811 374.224 202.261 374.224C201.975 374.224 201.711 374.29 201.447 374.4C201.183 374.532 200.963 374.708 200.765 374.95C200.567 375.192 200.413 375.5 200.303 375.852C200.171 376.226 200.127 376.666 200.127 377.15V381H198.873V373.3H200.127V374.312C200.171 374.114 200.281 373.938 200.435 373.784C200.567 373.652 200.743 373.52 200.941 373.432C201.139 373.344 201.359 373.256 201.579 373.212C201.799 373.168 202.041 373.146 202.261 373.146C203.317 373.146 204.131 373.41 204.681 373.916C205.209 374.422 205.495 375.082 205.495 375.874V381H204.263ZM206.69 373.3H208.252V369.45H209.528V373.3H211.794V374.378H209.528V378.338C209.528 378.976 209.616 379.416 209.836 379.636C210.034 379.878 210.386 379.988 210.87 379.988C211.31 379.988 211.618 379.878 211.794 379.658V380.912C211.442 381.088 210.98 381.154 210.452 381.154C209.682 381.154 209.132 380.912 208.78 380.406C208.428 379.922 208.252 379.218 208.252 378.338V374.378H206.69V373.3Z" fill="#2B2A2A"/>
<path d="M139.386 477.788C139.386 478.888 139.034 479.724 138.33 480.296C137.626 480.868 136.68 481.154 135.492 481.154C134.986 481.154 134.568 481.154 134.216 481.132C133.864 481.11 133.556 481.044 133.336 480.912V479.592C133.71 479.834 134.062 479.988 134.392 480.032C134.722 480.076 135.096 480.098 135.492 480.098C136.328 480.098 136.966 479.922 137.406 479.548C137.846 479.196 138.088 478.624 138.088 477.876C138.088 477.128 137.846 476.556 137.362 476.138C136.878 475.72 136.262 475.5 135.514 475.5C135.162 475.5 134.876 475.522 134.634 475.522C134.37 475.544 134.172 475.566 133.996 475.588L133.49 475.654V470.22H138.594V471.298H134.722V474.554L134.964 474.532C135.052 474.532 135.14 474.51 135.228 474.51H135.514C136.746 474.51 137.714 474.818 138.374 475.39C139.034 475.984 139.386 476.776 139.386 477.788ZM141.138 479.768H142.37V481H141.138V479.768ZM163.1 481H161.912V472.09L157.908 481H157.314L153.398 472.134C153.42 472.178 153.442 472.244 153.442 472.31V472.42V481H152.188V470.22H153.838L157.644 478.954L161.56 470.22H163.1V481ZM170.656 476.446C170.612 475.698 170.436 475.148 170.084 474.774C169.732 474.422 169.248 474.224 168.632 474.224C168.016 474.224 167.488 474.422 167.092 474.796C166.674 475.192 166.41 475.742 166.322 476.446H170.656ZM171.91 477.524H166.322C166.322 478.448 166.542 479.108 167.026 479.504C167.51 479.9 168.126 480.076 168.874 480.076C169.534 480.076 170.04 480.01 170.414 479.834C170.788 479.658 171.096 479.482 171.338 479.306V480.384C171.096 480.56 170.788 480.736 170.414 480.912C170.04 481.088 169.534 481.154 168.874 481.154C168.302 481.154 167.796 481.088 167.334 480.934C166.872 480.78 166.476 480.538 166.146 480.208C165.794 479.9 165.53 479.482 165.354 478.976C165.156 478.492 165.068 477.876 165.068 477.172C165.068 476.6 165.156 476.05 165.332 475.544C165.508 475.06 165.75 474.62 166.08 474.268C166.388 473.916 166.762 473.652 167.202 473.454C167.642 473.256 168.104 473.146 168.632 473.146C169.644 473.146 170.458 473.454 171.03 474.07C171.602 474.686 171.91 475.61 171.91 476.842V477.524ZM178.641 477.106C178.641 476.71 178.553 476.336 178.421 475.962C178.267 475.61 178.069 475.28 177.827 474.994C177.563 474.73 177.277 474.51 176.969 474.334C176.639 474.158 176.309 474.07 175.957 474.07C175.253 474.07 174.747 474.334 174.439 474.84C174.131 475.346 173.999 476.028 173.999 476.908C173.999 478.008 174.197 478.822 174.615 479.328C175.033 479.834 175.627 480.076 176.375 480.076C176.683 480.076 176.991 480.01 177.277 479.856C177.541 479.702 177.783 479.504 178.003 479.24C178.201 478.998 178.355 478.712 178.465 478.404C178.575 478.096 178.641 477.766 178.641 477.436V477.106ZM178.641 479.944C178.377 480.384 178.069 480.692 177.717 480.868C177.343 481.066 176.903 481.154 176.375 481.154C175.803 481.154 175.297 481.066 174.857 480.846C174.417 480.648 174.043 480.362 173.735 479.988C173.427 479.636 173.185 479.196 173.009 478.668C172.833 478.14 172.767 477.568 172.767 476.908C172.767 475.72 173.053 474.752 173.625 474.048C174.197 473.344 174.989 472.992 175.957 472.992C177.101 472.992 177.981 473.52 178.641 474.554V469.45H179.895V481H178.641V479.944ZM182.112 473.3H183.344V481H182.112V473.3ZM182.112 470.836H183.344V472.068H182.112V470.836ZM191.16 480.758C190.852 480.956 190.544 481.066 190.214 481.11C189.884 481.154 189.532 481.154 189.158 481.154C187.926 481.154 186.958 480.846 186.232 480.208C185.506 479.592 185.154 478.602 185.154 477.282C185.154 476.666 185.242 476.094 185.462 475.566C185.66 475.06 185.946 474.62 186.298 474.268C186.65 473.916 187.09 473.63 187.574 473.432C188.058 473.256 188.608 473.146 189.202 473.146C189.466 473.146 189.73 473.168 189.972 473.19C190.192 473.212 190.412 473.234 190.588 473.256L191.16 473.344V474.62C190.83 474.488 190.5 474.378 190.192 474.312C189.862 474.268 189.532 474.224 189.202 474.224C187.31 474.224 186.386 475.258 186.386 477.282C186.386 478.272 186.584 478.976 187.024 479.416C187.464 479.856 188.124 480.076 189.026 480.076C189.422 480.076 189.796 480.054 190.148 479.966C190.5 479.9 190.83 479.79 191.16 479.614V480.758ZM193.327 473.3H194.559V481H193.327V473.3ZM193.327 470.836H194.559V472.068H193.327V470.836ZM202.286 481V475.808C202.286 475.28 202.088 474.884 201.692 474.62C201.296 474.356 200.834 474.224 200.284 474.224C199.998 474.224 199.734 474.29 199.47 474.4C199.206 474.532 198.986 474.708 198.788 474.95C198.59 475.192 198.436 475.5 198.326 475.852C198.194 476.226 198.15 476.666 198.15 477.15V481H196.896V473.3H198.15V474.312C198.194 474.114 198.304 473.938 198.458 473.784C198.59 473.652 198.766 473.52 198.964 473.432C199.162 473.344 199.382 473.256 199.602 473.212C199.822 473.168 200.064 473.146 200.284 473.146C201.34 473.146 202.154 473.41 202.704 473.916C203.232 474.422 203.518 475.082 203.518 475.874V481H202.286ZM210.94 476.446C210.896 475.698 210.72 475.148 210.368 474.774C210.016 474.422 209.532 474.224 208.916 474.224C208.3 474.224 207.772 474.422 207.376 474.796C206.958 475.192 206.694 475.742 206.606 476.446H210.94ZM212.194 477.524H206.606C206.606 478.448 206.826 479.108 207.31 479.504C207.794 479.9 208.41 480.076 209.158 480.076C209.818 480.076 210.324 480.01 210.698 479.834C211.072 479.658 211.38 479.482 211.622 479.306V480.384C211.38 480.56 211.072 480.736 210.698 480.912C210.324 481.088 209.818 481.154 209.158 481.154C208.586 481.154 208.08 481.088 207.618 480.934C207.156 480.78 206.76 480.538 206.43 480.208C206.078 479.9 205.814 479.482 205.638 478.976C205.44 478.492 205.352 477.876 205.352 477.172C205.352 476.6 205.44 476.05 205.616 475.544C205.792 475.06 206.034 474.62 206.364 474.268C206.672 473.916 207.046 473.652 207.486 473.454C207.926 473.256 208.388 473.146 208.916 473.146C209.928 473.146 210.742 473.454 211.314 474.07C211.886 474.686 212.194 475.61 212.194 476.842V477.524ZM226.014 477.106C226.014 476.71 225.926 476.336 225.794 475.962C225.64 475.61 225.442 475.28 225.2 474.994C224.936 474.73 224.65 474.51 224.342 474.334C224.012 474.158 223.682 474.07 223.33 474.07C222.626 474.07 222.12 474.334 221.812 474.84C221.504 475.346 221.372 476.028 221.372 476.908C221.372 478.008 221.57 478.822 221.988 479.328C222.406 479.834 223 480.076 223.748 480.076C224.056 480.076 224.364 480.01 224.65 479.856C224.914 479.702 225.156 479.504 225.376 479.24C225.574 478.998 225.728 478.712 225.838 478.404C225.948 478.096 226.014 477.766 226.014 477.436V477.106ZM226.014 479.944C225.75 480.384 225.442 480.692 225.09 480.868C224.716 481.066 224.276 481.154 223.748 481.154C223.176 481.154 222.67 481.066 222.23 480.846C221.79 480.648 221.416 480.362 221.108 479.988C220.8 479.636 220.558 479.196 220.382 478.668C220.206 478.14 220.14 477.568 220.14 476.908C220.14 475.72 220.426 474.752 220.998 474.048C221.57 473.344 222.362 472.992 223.33 472.992C224.474 472.992 225.354 473.52 226.014 474.554V469.45H227.268V481H226.014V479.944ZM234.787 476.446C234.743 475.698 234.567 475.148 234.215 474.774C233.863 474.422 233.379 474.224 232.763 474.224C232.147 474.224 231.619 474.422 231.223 474.796C230.805 475.192 230.541 475.742 230.453 476.446H234.787ZM236.041 477.524H230.453C230.453 478.448 230.673 479.108 231.157 479.504C231.641 479.9 232.257 480.076 233.005 480.076C233.665 480.076 234.171 480.01 234.545 479.834C234.919 479.658 235.227 479.482 235.469 479.306V480.384C235.227 480.56 234.919 480.736 234.545 480.912C234.171 481.088 233.665 481.154 233.005 481.154C232.433 481.154 231.927 481.088 231.465 480.934C231.003 480.78 230.607 480.538 230.277 480.208C229.925 479.9 229.661 479.482 229.485 478.976C229.287 478.492 229.199 477.876 229.199 477.172C229.199 476.6 229.287 476.05 229.463 475.544C229.639 475.06 229.881 474.62 230.211 474.268C230.519 473.916 230.893 473.652 231.333 473.454C231.773 473.256 232.235 473.146 232.763 473.146C233.775 473.146 234.589 473.454 235.161 474.07C235.733 474.686 236.041 475.61 236.041 476.842V477.524ZM237.932 469.45H239.164V481H237.932V469.45ZM241.516 473.3H242.748V481H241.516V473.3ZM241.516 470.836H242.748V472.068H241.516V470.836ZM251.4 473.3L248.342 481H247.132L244.25 473.3H245.548L247.77 479.746L250.102 473.3H251.4ZM258.033 476.446C257.989 475.698 257.813 475.148 257.461 474.774C257.109 474.422 256.625 474.224 256.009 474.224C255.393 474.224 254.865 474.422 254.469 474.796C254.051 475.192 253.787 475.742 253.699 476.446H258.033ZM259.287 477.524H253.699C253.699 478.448 253.919 479.108 254.403 479.504C254.887 479.9 255.503 480.076 256.251 480.076C256.911 480.076 257.417 480.01 257.791 479.834C258.165 479.658 258.473 479.482 258.715 479.306V480.384C258.473 480.56 258.165 480.736 257.791 480.912C257.417 481.088 256.911 481.154 256.251 481.154C255.679 481.154 255.173 481.088 254.711 480.934C254.249 480.78 253.853 480.538 253.523 480.208C253.171 479.9 252.907 479.482 252.731 478.976C252.533 478.492 252.445 477.876 252.445 477.172C252.445 476.6 252.533 476.05 252.709 475.544C252.885 475.06 253.127 474.62 253.457 474.268C253.765 473.916 254.139 473.652 254.579 473.454C255.019 473.256 255.481 473.146 256.009 473.146C257.021 473.146 257.835 473.454 258.407 474.07C258.979 474.686 259.287 475.61 259.287 476.842V477.524ZM265.204 474.576C265.116 474.51 265.006 474.444 264.896 474.356C264.764 474.268 264.632 474.224 264.456 474.224C264.192 474.224 263.928 474.356 263.686 474.598C263.422 474.862 263.202 475.17 263.026 475.544C262.828 475.918 262.674 476.336 262.564 476.798C262.454 477.26 262.41 477.7 262.41 478.096V481H261.178V473.3H262.41V475.17C262.586 474.62 262.85 474.136 263.224 473.74C263.576 473.344 263.994 473.146 264.456 473.146C264.676 473.146 264.874 473.168 265.05 473.212L265.204 473.3V474.576ZM266.574 483.904C266.574 483.926 266.64 483.926 266.728 483.926C267.146 483.926 267.476 483.882 267.718 483.75C267.938 483.618 268.158 483.31 268.356 482.826L268.994 481.176L265.98 473.3H267.366L269.654 479.944L272.074 473.3H273.394L269.786 482.562C269.126 484.19 268.224 485.004 267.036 485.004C266.86 485.004 266.728 485.004 266.618 485.004C266.508 485.004 266.398 484.982 266.31 484.938L266.574 483.904ZM283.697 484.102C282.817 483.134 282.157 482.056 281.717 480.868C281.277 479.68 281.057 478.36 281.057 476.886C281.057 475.39 281.277 474.026 281.717 472.816C282.157 471.628 282.817 470.506 283.697 469.472H284.907C283.147 471.628 282.289 474.092 282.289 476.886C282.289 479.658 283.147 482.056 284.907 484.102H283.697ZM286.551 470.22H287.783V481H286.551V470.22ZM294.337 474.378H292.071V481.154H290.795V474.378H289.233V473.3H290.795V472.266C290.795 471.386 290.971 470.704 291.323 470.198C291.675 469.714 292.225 469.45 292.995 469.45C293.523 469.45 293.985 469.538 294.337 469.692V470.946C294.227 470.814 294.095 470.726 293.941 470.682C293.787 470.638 293.611 470.616 293.413 470.616C292.929 470.616 292.577 470.748 292.379 470.968C292.159 471.21 292.071 471.65 292.071 472.266V473.3H294.337V474.378ZM302.66 474.334C302.902 474.048 303.254 473.784 303.694 473.52C304.134 473.278 304.706 473.146 305.366 473.146C305.74 473.146 306.136 473.212 306.532 473.3C306.928 473.41 307.302 473.586 307.632 473.806C307.94 474.026 308.204 474.312 308.424 474.664C308.622 475.016 308.732 475.456 308.732 475.94V481H307.5V480.296C307.28 480.56 307.016 480.758 306.664 480.912C306.312 481.088 305.894 481.154 305.366 481.154C305.014 481.154 304.662 481.132 304.332 481.044C304.002 480.956 303.716 480.846 303.452 480.67C303.188 480.494 302.99 480.274 302.836 480.01C302.682 479.746 302.616 479.438 302.616 479.042C302.66 478.536 302.814 478.14 303.078 477.832C303.342 477.546 303.65 477.326 304.002 477.172C304.354 477.04 304.75 476.93 305.168 476.886C305.564 476.842 305.938 476.776 306.29 476.71C306.642 476.666 306.928 476.578 307.148 476.468C307.368 476.38 307.5 476.204 307.5 475.94C307.5 475.39 307.302 474.972 306.928 474.664C306.532 474.378 306.026 474.224 305.366 474.224C304.772 474.224 304.288 474.378 303.892 474.642C303.496 474.906 303.166 475.214 302.946 475.544L302.66 474.334ZM305.498 480.076C305.982 480.076 306.4 479.988 306.73 479.79C307.06 479.614 307.324 479.394 307.5 479.13V477.37C307.346 477.48 307.126 477.59 306.84 477.678C306.554 477.766 306.18 477.81 305.74 477.81C305.564 477.81 305.366 477.832 305.146 477.876C304.926 477.92 304.706 478.008 304.53 478.096C304.332 478.184 304.178 478.316 304.046 478.47C303.914 478.646 303.848 478.822 303.848 479.042C303.848 479.306 303.892 479.504 304.024 479.636C304.134 479.768 304.266 479.878 304.442 479.944C304.618 480.01 304.794 480.054 304.992 480.054C305.168 480.076 305.344 480.076 305.498 480.076ZM316.326 481V475.808C316.326 475.28 316.128 474.884 315.732 474.62C315.336 474.356 314.874 474.224 314.324 474.224C314.038 474.224 313.774 474.29 313.51 474.4C313.246 474.532 313.026 474.708 312.828 474.95C312.63 475.192 312.476 475.5 312.366 475.852C312.234 476.226 312.19 476.666 312.19 477.15V481H310.936V473.3H312.19V474.312C312.234 474.114 312.344 473.938 312.498 473.784C312.63 473.652 312.806 473.52 313.004 473.432C313.202 473.344 313.422 473.256 313.642 473.212C313.862 473.168 314.104 473.146 314.324 473.146C315.38 473.146 316.194 473.41 316.744 473.916C317.272 474.422 317.558 475.082 317.558 475.874V481H316.326ZM319.963 483.904C319.963 483.926 320.029 483.926 320.117 483.926C320.535 483.926 320.865 483.882 321.107 483.75C321.327 483.618 321.547 483.31 321.745 482.826L322.383 481.176L319.369 473.3H320.755L323.043 479.944L325.463 473.3H326.783L323.175 482.562C322.515 484.19 321.613 485.004 320.425 485.004C320.249 485.004 320.117 485.004 320.007 485.004C319.897 485.004 319.787 484.982 319.699 484.938L319.963 483.904ZM327.312 484.102C329.05 482.056 329.93 479.658 329.93 476.886C329.93 474.092 329.05 471.628 327.312 469.472H328.522C329.402 470.506 330.062 471.628 330.502 472.816C330.942 474.026 331.162 475.39 331.162 476.886C331.162 478.36 330.942 479.68 330.502 480.868C330.062 482.056 329.402 483.134 328.522 484.102H327.312ZM332.85 479.768H334.082V481H332.85V479.768Z" fill="#2B2A2A"/>
<path d="M80.1387 92.7561L80.1387 484.624" stroke="#E1E5D3" stroke-width="1.8" stroke-dasharray="8 8"/>
<circle cx="79.8216" cy="66.8216" r="25.8216" fill="#D9E5FB"/>
<path d="M93.0221 56.0626H65.9682C64.7244 56.0626 63.6833 57.0711 63.6833 58.3474V75.7229C63.6833 76.9667 64.6919 78.0078 65.9682 78.0078H92.9885C94.2661 78.0078 95.2734 76.9654 95.2734 75.7229L95.2747 58.3474C95.2747 57.1036 94.2659 56.0626 93.0221 56.0626ZM94.0983 75.6889C94.0983 76.2933 93.594 76.7975 92.9897 76.7975H65.968C65.3636 76.7975 64.8931 76.2933 64.8931 75.7227V58.3472C64.8931 57.7428 65.3974 57.2723 65.968 57.2723H93.0219C93.6263 57.2723 94.0968 57.7766 94.0968 58.3472L94.0983 75.6889Z" fill="#7AA4F2" stroke="#7AA4F2" stroke-width="0.4"/>
<path d="M90.7371 66.5485H80.0499C79.7133 66.5485 79.4456 66.8176 79.4456 67.1529C79.4456 67.4895 79.7146 67.7572 80.0499 67.7572H90.7371C91.0737 67.7572 91.3415 67.4882 91.3415 67.1529C91.3415 66.8163 91.0724 66.5485 90.7371 66.5485Z" fill="#7AA4F2" stroke="#7AA4F2" stroke-width="0.4"/>
<path d="M87.4775 69.7067H80.0499C79.7133 69.7067 79.4456 69.9758 79.4456 70.3111C79.4456 70.6477 79.7146 70.9154 80.0499 70.9154H87.4775C87.8141 70.9154 88.0818 70.6464 88.0818 70.3111C88.0818 69.9758 87.8128 69.7067 87.4775 69.7067Z" fill="#7AA4F2" stroke="#7AA4F2" stroke-width="0.4"/>
<path d="M90.7371 63.4228H80.0499C79.7133 63.4228 79.4456 63.6918 79.4456 64.0271C79.4456 64.3637 79.7146 64.6315 80.0499 64.6315H90.7371C91.0737 64.6315 91.3415 64.3625 91.3415 64.0271C91.309 63.6918 91.0724 63.4228 90.7371 63.4228Z" fill="#7AA4F2" stroke="#7AA4F2" stroke-width="0.4"/>
<path d="M71.7486 67.0193C73.5967 67.0193 75.1097 65.5065 75.1097 63.6582C75.1097 61.81 73.5968 60.331 71.7486 60.331C69.9004 60.331 68.4214 61.8438 68.4214 63.6582C68.4214 65.4725 69.9004 67.0193 71.7486 67.0193ZM71.7486 61.5411C72.9586 61.5411 73.9333 62.5159 73.9333 63.692C73.9333 64.902 72.9586 65.8768 71.7486 65.8768C70.5386 65.8768 69.5976 64.902 69.5976 63.692C69.5976 62.482 70.5386 61.5411 71.7486 61.5411Z" fill="#7AA4F2" stroke="#7AA4F2" stroke-width="0.4"/>
<path d="M71.7485 67.4558C69.0595 67.4558 66.9084 69.6405 66.9084 72.3284V73.1355C66.9084 73.4721 67.1775 73.7399 67.5128 73.7399C67.8494 73.7399 68.1171 73.4709 68.1171 73.1355V72.3284C68.1171 70.3113 69.7638 68.6323 71.781 68.6323C73.7982 68.6323 75.4772 70.279 75.4772 72.3284V73.1355C75.4772 73.4721 75.7462 73.7399 76.0815 73.7399C76.4182 73.7399 76.6859 73.4709 76.6859 73.1355V72.3284C76.6209 69.6069 74.4363 67.4558 71.7485 67.4558Z" fill="#7AA4F2" stroke="#7AA4F2" stroke-width="0.4"/>
<circle cx="79.8216" cy="168.855" r="25.8216" fill="#E9FBFA"/>
<path d="M91.1758 178.584L91.3648 177.984C92.0139 175.919 92.6765 174.238 93.3169 172.613C93.9681 170.961 94.6404 169.253 95.305 167.139L95.4568 166.656L95.0326 166.381C90.1117 163.188 84.8749 161.569 79.466 161.569C74.0576 161.569 68.8204 163.188 63.9005 166.381L63.4759 166.656L63.6277 167.139C64.2909 169.251 64.9632 170.957 65.6131 172.606C66.2548 174.234 66.918 175.917 67.5672 177.984L67.7556 178.583L68.3655 178.43C72.4395 177.402 75.9556 176.923 79.43 176.923C82.9094 176.923 86.5521 177.415 90.5674 178.43L91.1758 178.584ZM93.8796 167.224C93.2797 169.075 92.6698 170.623 92.0779 172.124C91.4908 173.613 90.8855 175.148 90.285 176.988C86.4001 176.049 82.8421 175.591 79.4283 175.591C76.016 175.591 72.5738 176.035 68.6452 176.988C68.0446 175.146 67.4381 173.609 66.8509 172.118C66.2603 170.619 65.6511 169.073 65.0519 167.224C69.6279 164.354 74.4745 162.9 79.4657 162.9C84.4572 162.9 89.3043 164.354 93.8795 167.224H93.8796Z" fill="#00A59C" stroke="#00A59C" stroke-width="0.3" stroke-linejoin="round"/>
<path d="M76.1658 170.041H82.7658C83.1334 170.041 83.4316 169.742 83.4316 169.375C83.4316 169.007 83.1334 168.709 82.7658 168.709H76.1658C75.7975 168.709 75.4999 169.007 75.4999 169.375C75.5001 169.742 75.7977 170.041 76.1658 170.041Z" fill="#00A59C" stroke="#00A59C" stroke-width="0.3" stroke-linejoin="round"/>
<path d="M79.465 173.366C79.8326 173.366 80.1309 173.068 80.1309 172.7V166.052C80.1309 165.684 79.8326 165.386 79.465 165.386C79.0967 165.386 78.7991 165.684 78.7991 166.052V172.7C78.7993 173.068 79.0969 173.366 79.465 173.366Z" fill="#00A59C" stroke="#00A59C" stroke-width="0.3" stroke-linejoin="round"/>
<circle cx="79.8216" cy="275.325" r="25.8216" fill="#EBF8E1"/>
<path d="M76.0108 261.348C75.812 261.372 75.6288 261.47 75.4963 261.625C75.3637 261.779 75.2911 261.978 75.2924 262.184V268.199C75.317 269.803 75.9531 271.333 77.0633 272.458C78.1735 273.583 79.6688 274.214 81.2265 274.213H81.6013V282.705C81.6055 283.252 81.5043 283.795 81.3037 284.302C81.103 284.809 80.8069 285.271 80.4324 285.659C80.0578 286.048 79.6123 286.357 79.1214 286.567C78.6306 286.778 78.1041 286.886 77.5724 286.886H74.9177C74.3792 286.894 73.8445 286.793 73.3447 286.586C72.8449 286.38 72.3899 286.073 72.0062 285.684C71.6226 285.295 71.3179 284.831 71.11 284.32C70.902 283.808 70.795 283.259 70.795 282.705V279.778C71.7956 279.567 72.6845 278.98 73.2893 278.133C73.8942 277.285 74.172 276.237 74.069 275.19C73.9659 274.144 73.4893 273.174 72.7315 272.469C71.9738 271.763 70.9888 271.373 69.9674 271.373C68.946 271.373 67.961 271.763 67.2032 272.469C66.4454 273.174 65.9688 274.144 65.8658 275.19C65.7627 276.237 66.0406 277.285 66.6454 278.133C67.2503 278.98 68.1391 279.567 69.1397 279.778V282.705C69.1397 283.483 69.2896 284.254 69.5807 284.972C69.8718 285.69 70.2984 286.342 70.8358 286.89C71.3731 287.437 72.0106 287.869 72.7113 288.161C73.4119 288.453 74.1619 288.599 74.9177 288.591H77.5724C79.0882 288.591 80.542 287.97 81.6138 286.867C82.6857 285.763 83.2879 284.266 83.2879 282.705V274.213H83.6939C85.2353 274.189 86.7069 273.547 87.797 272.424C88.8871 271.302 89.5101 269.786 89.5343 268.199V262.184C89.5349 261.973 89.458 261.77 89.3189 261.615C89.1799 261.459 88.9891 261.364 88.7847 261.348H86.7234C86.5051 261.348 86.2952 261.435 86.1379 261.591C85.9806 261.747 85.8882 261.96 85.8801 262.184C85.8759 262.297 85.8938 262.409 85.9327 262.514C85.9717 262.619 86.0308 262.715 86.1066 262.796C86.1825 262.878 86.2734 262.942 86.374 262.986C86.4746 263.03 86.5828 263.053 86.6922 263.053H87.9414V268.199C87.9414 269.367 87.4906 270.488 86.6882 271.315C85.8858 272.141 84.7975 272.605 83.6626 272.605H81.2265C80.1055 272.588 79.0363 272.116 78.2523 271.29C77.4684 270.465 77.0331 269.353 77.0414 268.199V263.053H78.2595C78.4613 263.03 78.6481 262.932 78.7858 262.779C78.9235 262.625 79.0028 262.425 79.0091 262.216C79.0092 261.992 78.9247 261.775 78.7732 261.613C78.6218 261.451 78.4152 261.356 78.197 261.348H76.0108ZM70.0455 273.12C70.648 273.19 71.2044 273.486 71.6083 273.952C72.0123 274.418 72.2356 275.02 72.2356 275.645C72.2356 276.269 72.0123 276.872 71.6083 277.338C71.2044 277.803 70.648 278.099 70.0455 278.17C69.4429 278.099 68.8865 277.803 68.4826 277.338C68.0786 276.872 67.8553 276.269 67.8553 275.645C67.8553 275.02 68.0786 274.418 68.4826 273.952C68.8865 273.486 69.4429 273.19 70.0455 273.12Z" fill="#68AD33"/>
<circle cx="79.8216" cy="374.822" r="25.8216" fill="#FFF3CA"/>
<path d="M95.4565 371.05C95.4565 371.048 95.456 371.047 95.456 371.044V369.147C95.456 366.529 93.3261 364.398 90.7069 364.398H69.4093C66.7905 364.398 64.6602 366.529 64.6602 369.147V381.699C64.6602 384.318 66.7905 386.448 69.4093 386.448H90.7075C93.3262 386.448 95.4566 384.319 95.4566 381.699V371.056C95.4561 371.054 95.4566 371.052 95.4566 371.05L95.4565 371.05ZM69.4092 366.039H90.7075C92.4219 366.039 93.8165 367.433 93.8165 369.148V370.23H66.2998V369.148C66.2998 367.433 67.6948 366.039 69.4094 366.039H69.4092ZM90.7069 384.808H69.4092C67.6948 384.808 66.3002 383.413 66.3002 381.699V371.87H93.8163V381.699C93.8158 383.413 92.4213 384.807 90.7067 384.807L90.7069 384.808Z" fill="#DF9F54"/>
<path d="M72.7712 378.978H69.8552C69.402 378.978 69.0352 379.345 69.0352 379.798C69.0352 380.25 69.402 380.618 69.8552 380.618H72.7712C73.2244 380.618 73.5912 380.25 73.5912 379.798C73.5912 379.345 73.2244 378.978 72.7712 378.978Z" fill="#DF9F54"/>
<circle cx="79.8216" cy="475.434" r="25.8216" fill="#FFDAD5"/>
<g clip-path="url(#clip0_165_119)">
<path d="M78.578 480.559C78.7748 480.559 78.9636 480.481 79.1028 480.342C79.242 480.203 79.3202 480.014 79.3202 479.817V479.079H80.0625C80.2495 479.065 80.4244 478.981 80.5521 478.844C80.6797 478.706 80.7507 478.526 80.7507 478.338C80.7507 478.151 80.6797 477.97 80.5521 477.833C80.4244 477.696 80.2495 477.612 80.0625 477.598H79.3202V476.856C79.3066 476.669 79.2226 476.494 79.0853 476.366C78.948 476.239 78.7674 476.168 78.5799 476.168C78.3924 476.168 78.2119 476.239 78.0746 476.366C77.9372 476.494 77.8533 476.669 77.8396 476.856V477.598H77.1013C76.9995 477.591 76.8973 477.604 76.8011 477.638C76.7048 477.672 76.6166 477.725 76.5418 477.795C76.4671 477.864 76.4075 477.948 76.3667 478.042C76.326 478.135 76.3049 478.236 76.3049 478.338C76.3049 478.44 76.326 478.541 76.3667 478.635C76.4075 478.728 76.4671 478.813 76.5418 478.882C76.6166 478.951 76.7048 479.005 76.8011 479.039C76.8973 479.072 76.9995 479.086 77.1013 479.079H77.8396V479.817C77.8396 480.013 77.9173 480.201 78.0556 480.34C78.194 480.48 78.3818 480.558 78.578 480.559Z" fill="#EB7979"/>
<path d="M83.083 488.701H71.9173C71.3288 488.701 70.7644 488.467 70.3483 488.051C69.9322 487.635 69.6984 487.07 69.6984 486.482V483.52H82.2815C82.3833 483.528 82.4855 483.514 82.5817 483.48C82.678 483.447 82.7663 483.393 82.841 483.324C82.9157 483.254 82.9753 483.17 83.0161 483.077C83.0569 482.983 83.0779 482.882 83.0779 482.78C83.0779 482.678 83.0569 482.577 83.0161 482.484C82.9753 482.39 82.9157 482.306 82.841 482.237C82.7663 482.167 82.678 482.114 82.5817 482.08C82.4855 482.046 82.3833 482.032 82.2815 482.04H69.6945V474.637H87.4616V476.117C87.4616 476.314 87.5398 476.503 87.679 476.642C87.8182 476.782 88.007 476.86 88.2039 476.86C88.4008 476.86 88.5896 476.782 88.7288 476.642C88.868 476.503 88.9462 476.314 88.9462 476.117V472.355C88.9435 471.568 88.7383 470.795 88.3504 470.11C87.9625 469.426 87.4048 468.853 86.7312 468.446C86.2749 468.176 85.8977 467.791 85.6375 467.329C85.4676 467.021 85.3502 466.688 85.2901 466.342C85.7093 466.181 86.0703 465.898 86.3254 465.529C86.5805 465.159 86.7178 464.722 86.7194 464.273V461.311C86.7183 460.722 86.4838 460.157 86.0671 459.741C85.6505 459.324 85.0857 459.09 84.4965 459.089H72.6517C72.0629 459.09 71.4985 459.324 71.0825 459.741C70.6664 460.158 70.4328 460.723 70.4328 461.311V464.273C70.4338 464.723 70.5714 465.162 70.8273 465.532C71.0832 465.902 71.4454 466.186 71.866 466.346C71.7908 466.779 71.6235 467.191 71.3756 467.554C71.1277 467.917 70.8049 468.222 70.4288 468.45C69.7542 468.855 69.1957 469.428 68.8076 470.113C68.4195 470.798 68.215 471.572 68.2139 472.359V486.482C68.2149 487.463 68.6056 488.404 69.3 489.098C69.9944 489.792 70.9358 490.181 71.9173 490.181H83.0791C83.1808 490.189 83.283 490.175 83.3793 490.141C83.4756 490.107 83.5638 490.054 83.6385 489.985C83.7133 489.915 83.7729 489.831 83.8136 489.737C83.8544 489.644 83.8754 489.543 83.8754 489.441C83.8754 489.339 83.8544 489.238 83.8136 489.144C83.7729 489.051 83.7133 488.967 83.6385 488.897C83.5638 488.828 83.4756 488.774 83.3793 488.741C83.283 488.707 83.1808 488.693 83.0791 488.701H83.083ZM71.9173 461.311C71.9173 461.116 71.9951 460.928 72.1336 460.789C72.272 460.651 72.4598 460.573 72.6557 460.573H84.5004C84.6966 460.573 84.8848 460.651 85.0239 460.789C85.163 460.928 85.2417 461.115 85.2427 461.311V464.273C85.2417 464.469 85.163 464.657 85.0239 464.795C84.8848 464.933 84.6966 465.011 84.5004 465.011H83.7621V464.273C83.7484 464.086 83.6645 463.911 83.5272 463.783C83.3899 463.655 83.2093 463.585 83.0218 463.585C82.8343 463.585 82.6538 463.655 82.5164 463.783C82.3791 463.911 82.2952 464.086 82.2815 464.273V465.011H80.8009V464.273C80.7873 464.086 80.7033 463.911 80.566 463.783C80.4287 463.655 80.2481 463.585 80.0606 463.585C79.8731 463.585 79.6926 463.655 79.5552 463.783C79.4179 463.911 79.334 464.086 79.3203 464.273V465.011H77.8397V464.273C77.8261 464.086 77.7421 463.911 77.6048 463.783C77.4675 463.655 77.2869 463.585 77.0994 463.585C76.9119 463.585 76.7314 463.655 76.594 463.783C76.4567 463.911 76.3728 464.086 76.3591 464.273V465.011H74.8785V464.273C74.8649 464.086 74.7809 463.911 74.6436 463.783C74.5063 463.655 74.3257 463.585 74.1382 463.585C73.9507 463.585 73.7702 463.655 73.6329 463.783C73.4955 463.911 73.4116 464.086 73.3979 464.273V465.011H72.6557C72.4598 465.011 72.272 464.933 72.1336 464.795C71.9951 464.656 71.9173 464.469 71.9173 464.273V461.311ZM69.6945 472.367C69.6946 471.837 69.8305 471.316 70.0893 470.854C70.3482 470.391 70.7238 470.003 71.179 469.729C71.7529 469.382 72.2435 468.914 72.616 468.356C72.9886 467.799 73.2339 467.166 73.3348 466.503H83.8174C83.9148 467.167 84.1588 467.801 84.5316 468.359C84.9045 468.917 85.3969 469.385 85.9731 469.729C86.4266 470.004 86.8018 470.391 87.0625 470.853C87.3231 471.315 87.4606 471.836 87.4616 472.367V473.156H69.6945V472.367Z" fill="#EB7979"/>
<path d="M88.204 478.34C87.2224 478.34 86.281 478.73 85.5866 479.424C84.8922 480.117 84.5015 481.058 84.5005 482.04V486.482C84.5005 487.464 84.8907 488.406 85.5852 489.1C86.2797 489.795 87.2217 490.185 88.204 490.185C89.1862 490.185 90.1282 489.795 90.8227 489.1C91.5172 488.406 91.9074 487.464 91.9074 486.482V482.04C91.9064 481.058 91.5157 480.117 90.8213 479.424C90.1269 478.73 89.1855 478.34 88.204 478.34ZM85.985 482.04C85.985 481.451 86.2188 480.887 86.6349 480.471C87.0511 480.055 87.6155 479.821 88.204 479.821C88.7925 479.821 89.3568 480.055 89.773 480.471C90.1891 480.887 90.4229 481.451 90.4229 482.04V483.52H85.985V482.04ZM90.4229 486.482C90.4229 487.07 90.1891 487.635 89.773 488.051C89.3568 488.467 88.7925 488.701 88.204 488.701C87.6155 488.701 87.0511 488.467 86.6349 488.051C86.2188 487.635 85.985 487.07 85.985 486.482V485.001H90.4229V486.482Z" fill="#EB7979"/>
</g>
<defs>
<clipPath id="clip0_165_119">
<rect width="23.6896" height="31.0926" fill="white" transform="translate(68.2139 459.089)"/>
</clipPath>
</defs>
</svg>
