<?xml version="1.0" encoding="UTF-8"?> <svg xmlns="http://www.w3.org/2000/svg" xmlns:xlink="http://www.w3.org/1999/xlink" width="1023" height="189" viewBox="0 0 1023 189"><defs><path id="a" d="M0 .638h103.895v152.037H0z"></path><path id="c" d="M.536.638h188.738v152.104H.536z"></path></defs><g fill="none" fill-rule="evenodd"><path fill="#6872F4" d="M1015.399 1l-6.423 17.883L1002.593 1h-7.142v24.98h4.583V5.824l6.973 20.156h3.998l6.912-20.156V25.98h4.582V1h-7.1zm-45.481 0v4.169h8.167V25.98h4.962V5.169h8.165V1h-21.294zM530.737 94.469c0-33.053 22.339-59.723 55.849-59.723 22.11 0 39.435 10.258 48.325 30.545l-13.221 5.927c-7.295-13.905-17.781-22.567-35.561-22.567-22.795 0-39.891 18.692-39.891 45.818 0 27.354 17.096 45.818 40.575 45.818 16.869 0 27.582-8.662 34.877-22.567l13.221 6.155c-8.89 19.148-25.53 30.317-48.325 30.317-33.51 0-55.849-26.67-55.849-59.723M645.648 94.469c0-33.281 22.795-59.723 54.937-59.723 20.06 0 35.104 11.397 41.03 22.11l2.053-19.375h13.22v113.976h-13.22l-2.053-19.832c-5.47 10.942-20.515 22.567-41.03 22.567-32.142 0-54.937-26.442-54.937-59.723m98.02 0c0-27.582-17.325-45.818-40.803-45.818-24.619 0-41.717 20.06-41.717 45.818 0 25.759 17.098 45.818 41.717 45.818 23.478 0 40.803-18.236 40.803-45.818M786.819 37.48h12.993l1.823 17.78c5.016-12.308 15.73-20.514 30.089-20.514 8.436 0 15.046 2.507 20.289 6.154l-4.332 14.817c-5.47-4.103-12.536-5.7-18.235-5.7-17.78 0-27.582 14.362-27.582 38.297v63.143h-15.045V37.48zM910.962 154.192c-35.333 0-55.62-26.214-55.62-59.267 0-35.333 22.566-60.179 54.935-60.179 34.194 0 53.34 25.53 53.34 57.215 0 1.824 0 4.331-.455 6.155h-93.005c1.597 29.178 19.832 42.171 41.945 42.171 18.464 0 29.86-9.574 35.559-22.568l12.766 5.244c-6.611 16.412-22.568 31.23-49.465 31.23m-40.576-67.93h77.96c-1.596-24.619-17.324-37.613-38.07-37.613-20.513 0-37.155 12.766-39.89 37.612"></path><g transform="translate(0 .362)"><mask id="b" fill="#fff"><use xlink:href="#a"></use></mask><path fill="#6872F4" d="M72.523 71.413a23.388 23.388 0 0 0-20.78 12.584 23.385 23.385 0 0 0-20.779-12.584c-12.91 0-23.376-10.562-23.376-23.59 0-13.031 10.465-23.592 23.376-23.592 9.052 0 16.896 5.194 20.78 12.787 3.883-7.593 11.727-12.787 20.78-12.787 12.908 0 23.375 10.56 23.375 23.592 0 13.028-10.467 23.59-23.376 23.59M51.95.638C23.26.638 0 24.108 0 53.064v25.009c0 41.2 33.098 74.602 73.924 74.602h6.595a39.375 39.375 0 0 1-15.584-31.456c0-21.715 17.442-39.32 38.96-39.32V53.065C103.895 24.109 80.638.638 51.95.638" mask="url(#b)"></path></g><path fill="#6872F4" d="M72.727 121.58c0 17.374 13.955 31.458 31.17 31.458V90.124c-17.215 0-31.17 14.086-31.17 31.457M72.522 40.32c-4.302 0-7.792 3.52-7.792 7.864 0 4.345 3.49 7.864 7.792 7.864s7.792-3.52 7.792-7.864c0-4.344-3.49-7.864-7.792-7.864M30.964 40.32c-4.302 0-7.792 3.52-7.792 7.864 0 4.345 3.49 7.864 7.792 7.864s7.792-3.52 7.792-7.864c0-4.344-3.49-7.864-7.792-7.864"></path><g transform="translate(320 .362)"><mask id="d" fill="#fff"><use xlink:href="#c"></use></mask><path fill="#6872F4" d="M129.613 32.316c-32.897 0-59.662 27.01-59.662 60.213 0 9.619 2.303 18.686 6.296 26.76-4.251 5.936-11.172 9.8-18.987 9.704-12.73-.152-22.83-10.944-22.83-23.797V56.485h19.648c1.515 0 2.742-1.24 2.742-2.77v-18.21c0-1.527-1.227-2.766-2.742-2.766H34.43V3.636c0-1.657-1.329-2.998-2.97-2.998h-17.59c-1.639 0-2.97 1.34-2.97 2.998v29.103H3.28c-1.515 0-2.742 1.239-2.742 2.767v18.21c0 1.53 1.227 2.769 2.743 2.769h7.62v48.448c0 26.117 21.172 48.032 47.047 47.806 12.974-.11 24.684-5.61 33.078-14.368 10.414 8.942 23.875 14.37 38.588 14.37 32.898 0 59.661-27.012 59.661-60.212 0-33.203-26.763-60.213-59.661-60.213m0 96.68c-19.924 0-36.135-16.36-36.135-36.467s16.212-36.467 36.135-36.467 36.133 16.36 36.133 36.467-16.21 36.468-36.133 36.468" mask="url(#d)"></path></g><path fill="#6872F4" d="M301.832 35.869c0-1.53-1.23-2.77-2.745-2.77h-18.041c-1.515 0-2.745 1.24-2.745 2.77v46.537c0 12.725-10.15 23.103-22.708 23.321-12.93.224-23.513-10.683-23.513-23.734V35.869c0-1.53-1.227-2.77-2.742-2.77h-18.043c-1.515 0-2.742 1.24-2.742 2.77v45.938c0 25.915 20.502 47.416 46.178 47.667 8.586.084 16.625-2.225 23.57-6.247v18.064c0 12.862-10.367 23.324-23.11 23.324-8.58 0-16.078-4.746-20.062-11.771l-2.744-4.984a2.73 2.73 0 0 0-3.748-1.014l-15.624 9.104a2.782 2.782 0 0 0-1.006 3.783l2.753 4.977c8.06 14.119 23.158 23.652 40.43 23.652 25.717 0 46.643-21.116 46.643-47.071V59.026h-.001V35.869zM193.618 129.357h-9.021c-11.07 0-20.041-9.056-20.041-20.227V56.846h20.675c.946 0 1.714-1.239 1.714-2.769v-18.21c0-1.528-.768-2.767-1.714-2.767h-20.675V3.77c0-1.53-1.23-2.77-2.745-2.77h-18.04c-1.515 0-2.745 1.24-2.745 2.77v105.36c0 24.287 19.506 43.974 43.57 43.974h9.022c1.515 0 2.742-1.24 2.742-2.769v-18.207c0-1.53-1.227-2.77-2.742-2.77"></path></g></svg> 