<svg width="218" height="143" viewBox="0 0 218 143" fill="none" xmlns="http://www.w3.org/2000/svg">
<g clip-path="url(#clip0_78_1989)">
<path d="M136.531 34.2573C136.529 36.032 135.819 37.7333 134.556 38.9876C133.293 40.2418 131.58 40.9463 129.795 40.9463C128.01 40.9463 126.299 40.2415 125.037 38.9871C123.775 37.7327 123.066 36.0314 123.066 34.2573V29.6105C123.066 27.8365 123.775 26.1351 125.037 24.8807C126.299 23.6263 128.01 22.9216 129.795 22.9216C131.58 22.9216 133.293 23.6261 134.556 24.8803C135.819 26.1345 136.529 27.8359 136.531 29.6105V34.2573Z" fill="#87C6C7"/>
<path d="M205.157 107.322C203.298 98.292 195.262 73.9326 175.69 65.1251C156.118 56.3177 137.761 63.4859 130.969 67.577C124.177 71.6682 116.337 87.6577 112.836 102.612C109.335 117.567 97.3795 117.359 88.1069 120.637L92.3904 136.21L188.016 136.821L188.226 134.362C213.158 132.931 206.98 116.338 205.157 107.322ZM107.33 131.188C111.145 131.188 128.146 118.491 131.654 118.894C133.401 128.215 133.61 133.133 133.813 133.751C134.016 134.369 108.364 138.87 107.33 131.188Z" fill="#A5E7CF"/>
<path d="M141.304 71.8835C140.067 77.7528 134.98 113.677 143.638 137.3C150.367 137.849 160.408 137.3 160.408 137.3C158.486 124.874 154.636 90.4569 162.602 70.793C154.629 70.918 141.304 71.8835 141.304 71.8835Z" fill="white"/>
<path d="M145.699 61.2284C138.9 61.6382 137.314 68.9454 140.409 73.4533C143.505 77.9612 149.34 74.2729 150.367 72.0155C157.725 78.9128 167.27 72.7101 169.331 62.4579C169.331 61.6382 157.641 59.3878 145.699 61.2284Z" fill="#E1E6E7"/>
<path d="M165.069 24.1996C164.761 17.3857 157.725 4.37592 141.031 5.11219C129.152 6.02211 127.699 17.212 127.699 17.212C127.287 18.4692 125.162 21.1226 125.162 21.1226C124.54 15.8784 127.874 1.98652 142.883 1.61839C159.779 1.19468 167.85 14.3433 168.164 23.7829C166.823 25.9847 165.069 24.1996 165.069 24.1996Z" fill="#87C6C7"/>
<path d="M131.919 11.301C126.21 15.1908 122.794 21.6574 125.686 28.0894C128.579 34.5213 129.397 37.3622 126.595 42.398C122.647 49.4759 121.005 56.0884 123.953 62.0967C141.856 59.6378 149.731 57.6374 149.731 57.6374C149.731 57.6374 142.806 10.5509 131.919 11.301Z" fill="#31241C"/>
<path d="M158.493 43.7039C158.493 43.7039 162.917 56.9637 163.336 62.569C163.72 67.7021 146.614 71.1334 145.406 65.7502C144.141 59.3392 142.261 48.4479 142.261 48.4479" fill="#FFD1C7"/>
<path d="M159.912 49.2397L158.514 43.683L142.268 48.4479C142.268 48.4479 142.848 51.7958 143.589 55.9912C144.818 56.2248 146.07 56.318 147.32 56.269C149.825 56.1551 152.269 55.46 154.455 54.2394C156.641 53.0189 158.51 51.3067 159.912 49.2397Z" fill="#F4B39E"/>
<path d="M130.117 37.258C130.206 39.3566 130.712 41.417 131.603 43.3213C132.495 45.2256 133.756 46.9363 135.314 48.3557C136.871 49.775 138.695 50.8751 140.681 51.593C142.667 52.3108 144.776 52.6323 146.887 52.5391C148.998 52.4498 151.071 51.9476 152.987 51.0611C154.902 50.1747 156.623 48.9214 158.051 47.373C159.479 45.8246 160.586 44.0115 161.308 42.0375C162.03 40.0635 162.353 37.9673 162.26 35.8688L161.498 18.9555C161.408 16.8538 160.902 14.7905 160.008 12.8839C159.114 10.9772 157.85 9.26486 156.289 7.84505C154.727 6.42524 152.899 5.32594 150.909 4.61023C148.919 3.89452 146.807 3.5765 144.693 3.67442C142.582 3.76368 140.509 4.2659 138.593 5.15236C136.677 6.03882 134.956 7.29212 133.529 8.84051C132.101 10.3889 130.994 12.202 130.272 14.176C129.55 16.15 129.226 18.2462 129.32 20.3447L130.117 37.258Z" fill="#FFD1C7"/>
<path d="M151.352 19.7542C149.319 18.6706 146.649 18.1636 144.525 19.2541C143.729 19.6639 144.434 20.8517 145.224 20.4488C146.88 19.5945 149.081 20.1085 150.646 20.942C151.436 21.3657 152.135 20.1779 151.345 19.7542H151.352Z" fill="#31241C"/>
<path d="M131.947 21.9839C132.429 21.5475 133.009 21.2316 133.639 21.0625C134.268 20.8934 134.929 20.8759 135.567 21.0115C136.44 21.1921 136.811 19.8654 135.937 19.6848C135.063 19.4902 134.154 19.5092 133.289 19.7403C132.424 19.9714 131.628 20.4075 130.969 21.0115C130.319 21.6227 131.304 22.5951 131.947 21.9839Z" fill="#31241C"/>
<path d="M142.708 38.7375C141.884 38.7496 141.075 38.5201 140.381 38.0776C140.267 37.9993 140.188 37.8788 140.162 37.7427C140.137 37.6066 140.166 37.466 140.245 37.3517C140.324 37.2375 140.445 37.1591 140.582 37.1337C140.719 37.1083 140.861 37.138 140.975 37.2163C141.49 37.5153 142.072 37.6786 142.668 37.6908C143.263 37.703 143.852 37.5635 144.378 37.2858C144.811 37.0489 145.164 36.6892 145.39 36.2525C145.617 35.8158 145.707 35.3219 145.65 34.8338C145.646 34.7654 145.656 34.6969 145.679 34.6323C145.702 34.5676 145.738 34.5081 145.784 34.4571C145.83 34.4062 145.885 34.3647 145.948 34.3352C146.01 34.3057 146.077 34.2887 146.146 34.2851C146.286 34.2794 146.422 34.3288 146.526 34.4224C146.629 34.516 146.691 34.6464 146.698 34.7852C146.764 35.4672 146.627 36.1533 146.306 36.7592C145.984 37.3651 145.492 37.8644 144.888 38.1957C144.219 38.5555 143.469 38.7418 142.708 38.7375Z" fill="#E7805E"/>
<path d="M133.453 29.5032C133.522 29.8706 133.645 30.1885 133.805 30.4168C133.965 30.6452 134.156 30.7736 134.352 30.7859C134.549 30.7981 134.743 30.6937 134.91 30.4859C135.077 30.278 135.21 29.9759 135.291 29.618C135.372 29.26 135.398 28.8621 135.366 28.4746C135.333 28.0871 135.244 27.7275 135.109 27.4411C134.975 27.1547 134.8 26.9545 134.609 26.8657C134.417 26.777 134.216 26.8036 134.032 26.9424C133.91 27.0345 133.798 27.1739 133.702 27.3525C133.607 27.5311 133.53 27.7454 133.476 27.9832C133.423 28.221 133.393 28.4777 133.389 28.7385C133.385 28.9993 133.406 29.2591 133.453 29.5032Z" fill="#1A191F"/>
<path d="M146.393 28.5101C146.463 28.8775 146.585 29.1954 146.746 29.4237C146.906 29.6521 147.096 29.7805 147.293 29.7927C147.49 29.805 147.684 29.7006 147.851 29.4928C148.018 29.2849 148.15 28.9828 148.231 28.6249C148.312 28.2669 148.338 27.869 148.306 27.4815C148.274 27.094 148.185 26.7344 148.05 26.448C147.915 26.1616 147.741 25.9614 147.549 25.8726C147.357 25.7838 147.157 25.8105 146.973 25.9492C146.85 26.0414 146.738 26.1808 146.643 26.3594C146.548 26.538 146.471 26.7523 146.417 26.9901C146.363 27.2279 146.333 27.4846 146.329 27.7454C146.325 28.0062 146.347 28.266 146.393 28.5101Z" fill="#1A191F"/>
<path d="M177.598 37.3622C174.921 31.6457 178.219 28.0894 176.801 22.6438C175.55 17.8789 169.848 18.0247 166.907 11.2733C162.392 0.923831 139.194 -8.39762 130.536 12.6069C140.158 6.12634 150.017 9.49511 153.756 14.2878C161.302 23.9566 153.56 28.0477 156.474 33.7989C158.57 37.9665 159.968 40.8074 157.243 47.1421C154.517 53.4768 158.34 59.5059 158.34 59.5059C167.319 58.5195 177.472 57.6374 186.695 56.0884C186.695 40.6198 180.26 43.0787 177.598 37.3622Z" fill="#31241C"/>
<path d="M136.769 116.539C128.936 117.233 125.917 119.546 118.908 123.235C111.9 126.923 110.391 127.743 112.04 128.423C107.917 128.694 110.321 130.882 113.207 129.924C111.285 130.743 113.961 131.632 117.811 130.202C118.769 131.702 123.716 131.021 126.895 129.243C130.075 127.465 137.614 125.965 144.483 128.284C145.308 124.054 142.701 116.678 142.701 116.678L136.769 116.539Z" fill="#FFD1C7"/>
<path d="M141.751 116.643C145.944 115.719 157.788 114.768 164.81 115.177C165.222 120.637 162.204 131.702 162.204 131.702L143.282 127.99C143.282 127.99 144.427 121.762 141.751 116.643Z" fill="#A5E7CF"/>
<path d="M178.604 95.4649C179.401 101.22 179.81 107.021 179.827 112.83C179.827 112.922 179.863 113.01 179.929 113.075C179.994 113.14 180.083 113.177 180.176 113.177C180.269 113.177 180.357 113.14 180.423 113.075C180.488 113.01 180.525 112.922 180.525 112.83C180.508 106.959 180.1 101.095 179.302 95.2774C179.24 94.8398 178.562 95.0273 178.604 95.4649Z" fill="white"/>
<path d="M128.992 88.3176C128.37 90.1791 128.551 92.1865 128.579 94.1175C128.621 96.7847 128.817 99.445 128.957 102.098C129.096 104.752 129.173 107.356 129.383 109.975C129.579 112.399 130.501 114.691 130.627 117.088C130.627 117.532 131.325 117.539 131.325 117.088C131.214 114.9 130.368 112.823 130.145 110.628C129.9 108.232 129.823 105.814 129.718 103.411C129.613 101.008 129.439 98.549 129.341 96.1318C129.243 93.7146 128.88 90.839 129.662 88.4912C129.809 88.0675 129.131 87.887 128.964 88.3107L128.992 88.3176Z" fill="white"/>
<path d="M117.49 130.806C119.691 130.417 121.459 129.049 123.311 127.895C125.861 126.305 128.733 125.388 131.5 124.249C131.912 124.082 131.738 123.408 131.319 123.554C129.034 124.492 126.686 125.284 124.478 126.402C122.074 127.611 120.027 129.632 117.301 130.111C116.861 130.188 117.05 130.854 117.49 130.806Z" fill="#EFA187"/>
<path d="M112.487 130.771C118.077 128.437 123.178 125.152 128.894 123.131C129.313 122.985 129.131 122.311 128.705 122.436C122.933 124.45 117.756 127.757 112.138 130.118C111.725 130.292 112.082 130.889 112.487 130.716V130.771Z" fill="#EFA187"/>
<path d="M111.25 129.132C113.451 127.805 115.96 127.194 118.238 125.999C120.516 124.805 122.696 123.61 125.016 122.582C125.421 122.394 125.072 121.797 124.659 121.978C122.346 123.006 120.117 124.214 117.888 125.402C115.659 126.59 113.123 127.208 110.901 128.535C110.516 128.764 110.866 129.368 111.25 129.132Z" fill="#EFA187"/>
<path d="M132.541 127.604C132.435 128.678 132.578 129.761 132.961 130.771C133.128 131.181 133.806 131 133.659 130.584C133.291 129.636 133.154 128.614 133.261 127.604C133.303 127.159 132.604 127.159 132.562 127.604H132.541Z" fill="white"/>
<path d="M124.408 38.2721C123.311 46.371 135.35 46.3988 140.549 46.1488C140.996 46.1488 140.996 45.4542 140.549 45.4542C135.958 45.6695 124.072 45.8918 125.086 38.4527C125.141 38.0151 124.471 37.8275 124.387 38.2721H124.408Z" fill="#1F0E03"/>
<path d="M144.602 45.6973C144.602 46.8434 143.449 47.7811 142.024 47.7811C140.598 47.7811 139.452 46.8503 139.452 45.6973C139.452 44.5443 140.605 43.6135 142.024 43.6135C143.442 43.6135 144.602 44.5234 144.602 45.6973Z" fill="#646464"/>
<path d="M142.883 1.61839C134.323 1.82676 129.565 6.43887 127.168 11.3427C128.011 11.4424 128.832 11.677 129.6 12.0373C131.374 8.98108 134.742 5.61925 141.031 5.13998C157.725 4.40371 164.789 17.4134 165.069 24.2274C165.069 24.2274 166.823 26.0125 168.164 23.8106C167.85 14.3433 159.779 1.19468 142.883 1.61839Z" fill="#87C6C7"/>
<path d="M173.594 34.2573C173.592 36.032 172.881 37.7333 171.618 38.9876C170.355 40.2418 168.643 40.9463 166.858 40.9463C165.073 40.9463 163.361 40.2415 162.099 38.9871C160.837 37.7327 160.128 36.0314 160.128 34.2573V29.6105C160.128 27.8365 160.837 26.1351 162.099 24.8807C163.361 23.6263 165.073 22.9216 166.858 22.9216C168.643 22.9216 170.355 23.6261 171.618 24.8803C172.881 26.1345 173.592 27.8359 173.594 29.6105V34.2573Z" fill="#87C6C7"/>
<path d="M172.007 33.5419C171.977 34.4951 171.614 35.4081 170.981 36.1252C170.349 36.8423 169.486 37.3189 168.539 37.4739C167.592 37.6288 166.621 37.4524 165.791 36.9747C164.96 36.4971 164.322 35.7478 163.986 34.8547C163.49 33.5836 163.776 31.7916 163.776 30.4579C163.776 25.8389 170.17 25.0401 171.791 29.1521C172.287 30.4163 172.007 32.2083 172.007 33.5419C172.007 33.634 172.044 33.7224 172.11 33.7875C172.175 33.8526 172.264 33.8892 172.357 33.8892C172.449 33.8892 172.538 33.8526 172.604 33.7875C172.669 33.7224 172.706 33.634 172.706 33.5419C172.706 30.7636 172.979 28.0685 170.316 26.332C167.095 24.2483 163.259 27.0266 163.077 30.4579C162.924 33.2016 162.903 36.0147 165.46 37.6748C168.681 39.7585 172.518 36.9802 172.706 33.5419C172.727 33.0974 172.028 33.0974 172.007 33.5419Z" fill="#1F0E03"/>
<path d="M93.215 130.743H146.936C149.41 130.743 149.962 135.661 145.839 135.661H22.598C18.8876 128.284 2.26404 83.2192 0.614965 78.9822C-1.03412 74.7452 0.475213 69.8344 7.21129 69.8344H54.4686C59.4159 69.8344 64.9151 70.654 68.346 78.1695C71.777 85.685 93.215 130.743 93.215 130.743Z" fill="#C9C9C9"/>
<path d="M147.104 135.467C147.257 135.413 147.407 135.348 147.551 135.272H147.586C149.682 134.098 148.983 130.764 146.936 130.764H93.215L93.173 130.674L93.0682 130.459C92.8796 130.056 92.5092 129.271 91.9782 128.166C87.3733 118.442 71.2808 84.6015 68.346 78.1557C64.9151 70.6471 59.4158 69.8206 54.4686 69.8206H50.0734C55.0206 69.8206 60.5129 70.6402 63.9508 78.1557C67.3887 85.6712 88.8198 130.736 88.8198 130.736L90.6715 135.522L96.6878 135.654H145.839C146.073 135.655 146.307 135.636 146.538 135.599C146.667 135.577 146.796 135.546 146.922 135.508L147.104 135.467Z" fill="#A3A3A3"/>
<path d="M48.564 103.432C49.9196 106.766 48.3125 109.468 44.9724 109.468C41.6323 109.468 37.831 106.766 36.4754 103.432C35.1198 100.098 36.727 97.3959 40.0601 97.3959C43.3932 97.3959 47.2364 100.091 48.564 103.432Z" fill="white"/>
<path d="M218.007 138.717C218.005 139.593 217.654 140.432 217.03 141.051C216.407 141.669 215.562 142.017 214.681 142.017H11.4318C10.5515 142.017 9.70728 141.669 9.08483 141.05C8.46237 140.431 8.11267 139.592 8.11267 138.717C8.11267 137.842 8.46214 137.002 9.0844 136.382C9.70665 135.762 10.5509 135.413 11.4318 135.411H214.681C215.563 135.411 216.409 135.759 217.033 136.379C217.657 136.999 218.007 137.84 218.007 138.717Z" fill="#E1E6E7"/>
<path d="M140.762 28.8006L141.352 33.7662H138.946C138.844 33.7646 138.744 33.7352 138.656 33.6808C138.568 33.6264 138.495 33.5489 138.444 33.4559C138.393 33.3629 138.366 33.2576 138.365 33.1503C138.365 33.043 138.391 32.9374 138.441 32.8438L140.762 28.8006Z" fill="#EFA287"/>
<circle cx="95.8839" cy="66.0332" r="11.7593" fill="#D2E97A"/>
<path d="M101.486 66.3141C101.904 66.3141 102.243 65.9751 102.243 65.5569C102.243 65.1387 101.904 64.7997 101.486 64.7997C101.068 64.7997 100.729 65.1387 100.729 65.5569C100.729 65.9751 101.068 66.3141 101.486 66.3141Z" fill="white" stroke="white" stroke-width="1.5" stroke-linecap="round" stroke-linejoin="round"/>
<path d="M96.1851 66.3141C96.6033 66.3141 96.9423 65.9751 96.9423 65.5569C96.9423 65.1387 96.6033 64.7997 96.1851 64.7997C95.7669 64.7997 95.4279 65.1387 95.4279 65.5569C95.4279 65.9751 95.7669 66.3141 96.1851 66.3141Z" fill="white" stroke="white" stroke-width="1.5" stroke-linecap="round" stroke-linejoin="round"/>
<path d="M90.8847 66.3141C91.3029 66.3141 91.6419 65.9751 91.6419 65.5569C91.6419 65.1387 91.3029 64.7997 90.8847 64.7997C90.4665 64.7997 90.1274 65.1387 90.1274 65.5569C90.1274 65.9751 90.4665 66.3141 90.8847 66.3141Z" fill="white" stroke="white" stroke-width="1.5" stroke-linecap="round" stroke-linejoin="round"/>
</g>
<circle cx="61.9625" cy="33.0158" r="19.4481" fill="#6DB557"/>
<path d="M70.9603 26.3393L58.9866 39.6917L53.5441 33.6224" stroke="white" stroke-width="4" stroke-linecap="round" stroke-linejoin="round"/>
<defs>
<clipPath id="clip0_78_1989">
<rect width="218" height="142.017" fill="white"/>
</clipPath>
</defs>
</svg>
